%TF.GenerationSoftware,KiCad,Pcbnew,(7.0.0)*%
%TF.CreationDate,2023-03-15T20:35:50+00:00*%
%TF.ProjectId,porta-jelly,706f7274-612d-46a6-956c-6c792e6b6963,rev?*%
%TF.SameCoordinates,Original*%
%TF.FileFunction,Soldermask,Bot*%
%TF.FilePolarity,Negative*%
%FSLAX46Y46*%
G04 Gerber Fmt 4.6, Leading zero omitted, Abs format (unit mm)*
G04 Created by KiCad (PCBNEW (7.0.0)) date 2023-03-15 20:35:50*
%MOMM*%
%LPD*%
G01*
G04 APERTURE LIST*
G04 Aperture macros list*
%AMRoundRect*
0 Rectangle with rounded corners*
0 $1 Rounding radius*
0 $2 $3 $4 $5 $6 $7 $8 $9 X,Y pos of 4 corners*
0 Add a 4 corners polygon primitive as box body*
4,1,4,$2,$3,$4,$5,$6,$7,$8,$9,$2,$3,0*
0 Add four circle primitives for the rounded corners*
1,1,$1+$1,$2,$3*
1,1,$1+$1,$4,$5*
1,1,$1+$1,$6,$7*
1,1,$1+$1,$8,$9*
0 Add four rect primitives between the rounded corners*
20,1,$1+$1,$2,$3,$4,$5,0*
20,1,$1+$1,$4,$5,$6,$7,0*
20,1,$1+$1,$6,$7,$8,$9,0*
20,1,$1+$1,$8,$9,$2,$3,0*%
G04 Aperture macros list end*
%ADD10RoundRect,0.250000X0.845000X-0.620000X0.845000X0.620000X-0.845000X0.620000X-0.845000X-0.620000X0*%
%ADD11O,2.190000X1.740000*%
%ADD12RoundRect,0.250000X-0.845000X0.620000X-0.845000X-0.620000X0.845000X-0.620000X0.845000X0.620000X0*%
%ADD13C,3.200000*%
%ADD14O,1.200000X1.900000*%
%ADD15C,1.450000*%
%ADD16O,2.250000X1.500000*%
%ADD17C,1.524000*%
%ADD18O,1.800000X1.800000*%
%ADD19O,1.500000X1.500000*%
%ADD20O,1.700000X1.700000*%
%ADD21R,1.700000X1.700000*%
%ADD22RoundRect,1.250000X1.250000X-3.750000X1.250000X3.750000X-1.250000X3.750000X-1.250000X-3.750000X0*%
G04 APERTURE END LIST*
D10*
%TO.C,J3*%
X90000000Y-95000000D03*
D11*
X89999999Y-92459999D03*
X89999999Y-89919999D03*
%TD*%
D10*
%TO.C,J4*%
X90000000Y-105000000D03*
D11*
X89999999Y-102459999D03*
X89999999Y-99919999D03*
%TD*%
D12*
%TO.C,J9*%
X130000000Y-99920000D03*
D11*
X129999999Y-102459999D03*
X129999999Y-104999999D03*
%TD*%
D10*
%TO.C,J5*%
X90000000Y-115000000D03*
D11*
X89999999Y-112459999D03*
X89999999Y-109919999D03*
%TD*%
D13*
%TO.C,H4*%
X130000000Y-132500000D03*
%TD*%
D12*
%TO.C,J8*%
X130000000Y-109920000D03*
D11*
X129999999Y-112459999D03*
X129999999Y-114999999D03*
%TD*%
D12*
%TO.C,J7*%
X130000000Y-119920000D03*
D11*
X129999999Y-122459999D03*
X129999999Y-124999999D03*
%TD*%
D14*
%TO.C,J1*%
X118499999Y-66512499D03*
D15*
X117500000Y-69212500D03*
X112500000Y-69212500D03*
D14*
X111499999Y-66512499D03*
%TD*%
D16*
%TO.C,SW1*%
X131999999Y-86149999D03*
X131999999Y-77849999D03*
D17*
X132000000Y-84000000D03*
X132000000Y-82000000D03*
X132000000Y-80000000D03*
%TD*%
D10*
%TO.C,J6*%
X90000000Y-125000000D03*
D11*
X89999999Y-122459999D03*
X89999999Y-119919999D03*
%TD*%
D13*
%TO.C,H2*%
X90000000Y-70000000D03*
%TD*%
D12*
%TO.C,J10*%
X130000000Y-89920000D03*
D11*
X129999999Y-92459999D03*
X129999999Y-94999999D03*
%TD*%
D18*
%TO.C,U2*%
X112724999Y-133999999D03*
D19*
X112424999Y-130969999D03*
X107574999Y-130969999D03*
D18*
X107274999Y-133999999D03*
D20*
X118889999Y-134129999D03*
X118889999Y-131589999D03*
D21*
X118889999Y-129049999D03*
D20*
X118889999Y-126509999D03*
X118889999Y-123969999D03*
X118889999Y-121429999D03*
X118889999Y-118889999D03*
D21*
X118889999Y-116349999D03*
D20*
X118889999Y-113809999D03*
X118889999Y-111269999D03*
X118889999Y-108729999D03*
X118889999Y-106189999D03*
D21*
X118889999Y-103649999D03*
D20*
X118889999Y-101109999D03*
X118889999Y-98569999D03*
X118889999Y-96029999D03*
X118889999Y-93489999D03*
D21*
X118889999Y-90949999D03*
D20*
X118889999Y-88409999D03*
X118889999Y-85869999D03*
X101109999Y-85869999D03*
X101109999Y-88409999D03*
D21*
X101109999Y-90949999D03*
D20*
X101109999Y-93489999D03*
X101109999Y-96029999D03*
X101109999Y-98569999D03*
X101109999Y-101109999D03*
D21*
X101109999Y-103649999D03*
D20*
X101109999Y-106189999D03*
X101109999Y-108729999D03*
X101109999Y-111269999D03*
X101109999Y-113809999D03*
D21*
X101109999Y-116349999D03*
D20*
X101109999Y-118889999D03*
X101109999Y-121429999D03*
X101109999Y-123969999D03*
X101109999Y-126509999D03*
D21*
X101109999Y-129049999D03*
D20*
X101109999Y-131589999D03*
X101109999Y-134129999D03*
X112539999Y-86099999D03*
D21*
X109999999Y-86099999D03*
D20*
X107459999Y-86099999D03*
%TD*%
D13*
%TO.C,H1*%
X130000000Y-70000000D03*
%TD*%
D22*
%TO.C,J11*%
X122500000Y-70500000D03*
%TD*%
%TO.C,J2*%
X97500000Y-70500000D03*
%TD*%
D13*
%TO.C,H3*%
X90000000Y-132500000D03*
%TD*%
M02*
