%TF.GenerationSoftware,KiCad,Pcbnew,(7.0.0)*%
%TF.CreationDate,2023-03-15T20:35:50+00:00*%
%TF.ProjectId,porta-jelly,706f7274-612d-46a6-956c-6c792e6b6963,rev?*%
%TF.SameCoordinates,Original*%
%TF.FileFunction,Legend,Top*%
%TF.FilePolarity,Positive*%
%FSLAX46Y46*%
G04 Gerber Fmt 4.6, Leading zero omitted, Abs format (unit mm)*
G04 Created by KiCad (PCBNEW (7.0.0)) date 2023-03-15 20:35:50*
%MOMM*%
%LPD*%
G01*
G04 APERTURE LIST*
%ADD10C,0.150000*%
%ADD11C,0.120000*%
G04 APERTURE END LIST*
D10*
%TO.C,D2*%
X101211905Y-69917380D02*
X101211905Y-68917380D01*
X101211905Y-68917380D02*
X101450000Y-68917380D01*
X101450000Y-68917380D02*
X101592857Y-68965000D01*
X101592857Y-68965000D02*
X101688095Y-69060238D01*
X101688095Y-69060238D02*
X101735714Y-69155476D01*
X101735714Y-69155476D02*
X101783333Y-69345952D01*
X101783333Y-69345952D02*
X101783333Y-69488809D01*
X101783333Y-69488809D02*
X101735714Y-69679285D01*
X101735714Y-69679285D02*
X101688095Y-69774523D01*
X101688095Y-69774523D02*
X101592857Y-69869761D01*
X101592857Y-69869761D02*
X101450000Y-69917380D01*
X101450000Y-69917380D02*
X101211905Y-69917380D01*
X102164286Y-69012619D02*
X102211905Y-68965000D01*
X102211905Y-68965000D02*
X102307143Y-68917380D01*
X102307143Y-68917380D02*
X102545238Y-68917380D01*
X102545238Y-68917380D02*
X102640476Y-68965000D01*
X102640476Y-68965000D02*
X102688095Y-69012619D01*
X102688095Y-69012619D02*
X102735714Y-69107857D01*
X102735714Y-69107857D02*
X102735714Y-69203095D01*
X102735714Y-69203095D02*
X102688095Y-69345952D01*
X102688095Y-69345952D02*
X102116667Y-69917380D01*
X102116667Y-69917380D02*
X102735714Y-69917380D01*
%TO.C,D4*%
X105311905Y-69917380D02*
X105311905Y-68917380D01*
X105311905Y-68917380D02*
X105550000Y-68917380D01*
X105550000Y-68917380D02*
X105692857Y-68965000D01*
X105692857Y-68965000D02*
X105788095Y-69060238D01*
X105788095Y-69060238D02*
X105835714Y-69155476D01*
X105835714Y-69155476D02*
X105883333Y-69345952D01*
X105883333Y-69345952D02*
X105883333Y-69488809D01*
X105883333Y-69488809D02*
X105835714Y-69679285D01*
X105835714Y-69679285D02*
X105788095Y-69774523D01*
X105788095Y-69774523D02*
X105692857Y-69869761D01*
X105692857Y-69869761D02*
X105550000Y-69917380D01*
X105550000Y-69917380D02*
X105311905Y-69917380D01*
X106740476Y-69250714D02*
X106740476Y-69917380D01*
X106502381Y-68869761D02*
X106264286Y-69584047D01*
X106264286Y-69584047D02*
X106883333Y-69584047D01*
%TO.C,C2*%
X115022142Y-74916666D02*
X115069761Y-74964285D01*
X115069761Y-74964285D02*
X115117380Y-75107142D01*
X115117380Y-75107142D02*
X115117380Y-75202380D01*
X115117380Y-75202380D02*
X115069761Y-75345237D01*
X115069761Y-75345237D02*
X114974523Y-75440475D01*
X114974523Y-75440475D02*
X114879285Y-75488094D01*
X114879285Y-75488094D02*
X114688809Y-75535713D01*
X114688809Y-75535713D02*
X114545952Y-75535713D01*
X114545952Y-75535713D02*
X114355476Y-75488094D01*
X114355476Y-75488094D02*
X114260238Y-75440475D01*
X114260238Y-75440475D02*
X114165000Y-75345237D01*
X114165000Y-75345237D02*
X114117380Y-75202380D01*
X114117380Y-75202380D02*
X114117380Y-75107142D01*
X114117380Y-75107142D02*
X114165000Y-74964285D01*
X114165000Y-74964285D02*
X114212619Y-74916666D01*
X114212619Y-74535713D02*
X114165000Y-74488094D01*
X114165000Y-74488094D02*
X114117380Y-74392856D01*
X114117380Y-74392856D02*
X114117380Y-74154761D01*
X114117380Y-74154761D02*
X114165000Y-74059523D01*
X114165000Y-74059523D02*
X114212619Y-74011904D01*
X114212619Y-74011904D02*
X114307857Y-73964285D01*
X114307857Y-73964285D02*
X114403095Y-73964285D01*
X114403095Y-73964285D02*
X114545952Y-74011904D01*
X114545952Y-74011904D02*
X115117380Y-74583332D01*
X115117380Y-74583332D02*
X115117380Y-73964285D01*
%TO.C,J3*%
X94447380Y-92174285D02*
X94447380Y-92745713D01*
X94447380Y-92459999D02*
X93447380Y-92459999D01*
X93447380Y-92459999D02*
X93590238Y-92555237D01*
X93590238Y-92555237D02*
X93685476Y-92650475D01*
X93685476Y-92650475D02*
X93733095Y-92745713D01*
%TO.C,R2*%
X116617380Y-74916666D02*
X116141190Y-75249999D01*
X116617380Y-75488094D02*
X115617380Y-75488094D01*
X115617380Y-75488094D02*
X115617380Y-75107142D01*
X115617380Y-75107142D02*
X115665000Y-75011904D01*
X115665000Y-75011904D02*
X115712619Y-74964285D01*
X115712619Y-74964285D02*
X115807857Y-74916666D01*
X115807857Y-74916666D02*
X115950714Y-74916666D01*
X115950714Y-74916666D02*
X116045952Y-74964285D01*
X116045952Y-74964285D02*
X116093571Y-75011904D01*
X116093571Y-75011904D02*
X116141190Y-75107142D01*
X116141190Y-75107142D02*
X116141190Y-75488094D01*
X115712619Y-74535713D02*
X115665000Y-74488094D01*
X115665000Y-74488094D02*
X115617380Y-74392856D01*
X115617380Y-74392856D02*
X115617380Y-74154761D01*
X115617380Y-74154761D02*
X115665000Y-74059523D01*
X115665000Y-74059523D02*
X115712619Y-74011904D01*
X115712619Y-74011904D02*
X115807857Y-73964285D01*
X115807857Y-73964285D02*
X115903095Y-73964285D01*
X115903095Y-73964285D02*
X116045952Y-74011904D01*
X116045952Y-74011904D02*
X116617380Y-74583332D01*
X116617380Y-74583332D02*
X116617380Y-73964285D01*
%TO.C,J4*%
X93542619Y-102745713D02*
X93495000Y-102698094D01*
X93495000Y-102698094D02*
X93447380Y-102602856D01*
X93447380Y-102602856D02*
X93447380Y-102364761D01*
X93447380Y-102364761D02*
X93495000Y-102269523D01*
X93495000Y-102269523D02*
X93542619Y-102221904D01*
X93542619Y-102221904D02*
X93637857Y-102174285D01*
X93637857Y-102174285D02*
X93733095Y-102174285D01*
X93733095Y-102174285D02*
X93875952Y-102221904D01*
X93875952Y-102221904D02*
X94447380Y-102793332D01*
X94447380Y-102793332D02*
X94447380Y-102174285D01*
%TO.C,D1*%
X96511905Y-133617380D02*
X96511905Y-132617380D01*
X96511905Y-132617380D02*
X96750000Y-132617380D01*
X96750000Y-132617380D02*
X96892857Y-132665000D01*
X96892857Y-132665000D02*
X96988095Y-132760238D01*
X96988095Y-132760238D02*
X97035714Y-132855476D01*
X97035714Y-132855476D02*
X97083333Y-133045952D01*
X97083333Y-133045952D02*
X97083333Y-133188809D01*
X97083333Y-133188809D02*
X97035714Y-133379285D01*
X97035714Y-133379285D02*
X96988095Y-133474523D01*
X96988095Y-133474523D02*
X96892857Y-133569761D01*
X96892857Y-133569761D02*
X96750000Y-133617380D01*
X96750000Y-133617380D02*
X96511905Y-133617380D01*
X98035714Y-133617380D02*
X97464286Y-133617380D01*
X97750000Y-133617380D02*
X97750000Y-132617380D01*
X97750000Y-132617380D02*
X97654762Y-132760238D01*
X97654762Y-132760238D02*
X97559524Y-132855476D01*
X97559524Y-132855476D02*
X97464286Y-132903095D01*
%TO.C,J9*%
X125287380Y-102793332D02*
X125287380Y-102126666D01*
X125287380Y-102126666D02*
X126287380Y-102555237D01*
%TO.C,C4*%
X116333333Y-80272142D02*
X116285714Y-80319761D01*
X116285714Y-80319761D02*
X116142857Y-80367380D01*
X116142857Y-80367380D02*
X116047619Y-80367380D01*
X116047619Y-80367380D02*
X115904762Y-80319761D01*
X115904762Y-80319761D02*
X115809524Y-80224523D01*
X115809524Y-80224523D02*
X115761905Y-80129285D01*
X115761905Y-80129285D02*
X115714286Y-79938809D01*
X115714286Y-79938809D02*
X115714286Y-79795952D01*
X115714286Y-79795952D02*
X115761905Y-79605476D01*
X115761905Y-79605476D02*
X115809524Y-79510238D01*
X115809524Y-79510238D02*
X115904762Y-79415000D01*
X115904762Y-79415000D02*
X116047619Y-79367380D01*
X116047619Y-79367380D02*
X116142857Y-79367380D01*
X116142857Y-79367380D02*
X116285714Y-79415000D01*
X116285714Y-79415000D02*
X116333333Y-79462619D01*
X117190476Y-79700714D02*
X117190476Y-80367380D01*
X116952381Y-79319761D02*
X116714286Y-80034047D01*
X116714286Y-80034047D02*
X117333333Y-80034047D01*
%TO.C,R3*%
X106617380Y-79916666D02*
X106141190Y-80249999D01*
X106617380Y-80488094D02*
X105617380Y-80488094D01*
X105617380Y-80488094D02*
X105617380Y-80107142D01*
X105617380Y-80107142D02*
X105665000Y-80011904D01*
X105665000Y-80011904D02*
X105712619Y-79964285D01*
X105712619Y-79964285D02*
X105807857Y-79916666D01*
X105807857Y-79916666D02*
X105950714Y-79916666D01*
X105950714Y-79916666D02*
X106045952Y-79964285D01*
X106045952Y-79964285D02*
X106093571Y-80011904D01*
X106093571Y-80011904D02*
X106141190Y-80107142D01*
X106141190Y-80107142D02*
X106141190Y-80488094D01*
X105617380Y-79583332D02*
X105617380Y-78964285D01*
X105617380Y-78964285D02*
X105998333Y-79297618D01*
X105998333Y-79297618D02*
X105998333Y-79154761D01*
X105998333Y-79154761D02*
X106045952Y-79059523D01*
X106045952Y-79059523D02*
X106093571Y-79011904D01*
X106093571Y-79011904D02*
X106188809Y-78964285D01*
X106188809Y-78964285D02*
X106426904Y-78964285D01*
X106426904Y-78964285D02*
X106522142Y-79011904D01*
X106522142Y-79011904D02*
X106569761Y-79059523D01*
X106569761Y-79059523D02*
X106617380Y-79154761D01*
X106617380Y-79154761D02*
X106617380Y-79440475D01*
X106617380Y-79440475D02*
X106569761Y-79535713D01*
X106569761Y-79535713D02*
X106522142Y-79583332D01*
%TO.C,J5*%
X93447380Y-112793332D02*
X93447380Y-112174285D01*
X93447380Y-112174285D02*
X93828333Y-112507618D01*
X93828333Y-112507618D02*
X93828333Y-112364761D01*
X93828333Y-112364761D02*
X93875952Y-112269523D01*
X93875952Y-112269523D02*
X93923571Y-112221904D01*
X93923571Y-112221904D02*
X94018809Y-112174285D01*
X94018809Y-112174285D02*
X94256904Y-112174285D01*
X94256904Y-112174285D02*
X94352142Y-112221904D01*
X94352142Y-112221904D02*
X94399761Y-112269523D01*
X94399761Y-112269523D02*
X94447380Y-112364761D01*
X94447380Y-112364761D02*
X94447380Y-112650475D01*
X94447380Y-112650475D02*
X94399761Y-112745713D01*
X94399761Y-112745713D02*
X94352142Y-112793332D01*
%TO.C,C7*%
X118022142Y-74916666D02*
X118069761Y-74964285D01*
X118069761Y-74964285D02*
X118117380Y-75107142D01*
X118117380Y-75107142D02*
X118117380Y-75202380D01*
X118117380Y-75202380D02*
X118069761Y-75345237D01*
X118069761Y-75345237D02*
X117974523Y-75440475D01*
X117974523Y-75440475D02*
X117879285Y-75488094D01*
X117879285Y-75488094D02*
X117688809Y-75535713D01*
X117688809Y-75535713D02*
X117545952Y-75535713D01*
X117545952Y-75535713D02*
X117355476Y-75488094D01*
X117355476Y-75488094D02*
X117260238Y-75440475D01*
X117260238Y-75440475D02*
X117165000Y-75345237D01*
X117165000Y-75345237D02*
X117117380Y-75202380D01*
X117117380Y-75202380D02*
X117117380Y-75107142D01*
X117117380Y-75107142D02*
X117165000Y-74964285D01*
X117165000Y-74964285D02*
X117212619Y-74916666D01*
X117117380Y-74583332D02*
X117117380Y-73916666D01*
X117117380Y-73916666D02*
X118117380Y-74345237D01*
%TO.C,L1*%
X106883333Y-81967380D02*
X106407143Y-81967380D01*
X106407143Y-81967380D02*
X106407143Y-80967380D01*
X107740476Y-81967380D02*
X107169048Y-81967380D01*
X107454762Y-81967380D02*
X107454762Y-80967380D01*
X107454762Y-80967380D02*
X107359524Y-81110238D01*
X107359524Y-81110238D02*
X107264286Y-81205476D01*
X107264286Y-81205476D02*
X107169048Y-81253095D01*
%TO.C,D3*%
X103261905Y-69917380D02*
X103261905Y-68917380D01*
X103261905Y-68917380D02*
X103500000Y-68917380D01*
X103500000Y-68917380D02*
X103642857Y-68965000D01*
X103642857Y-68965000D02*
X103738095Y-69060238D01*
X103738095Y-69060238D02*
X103785714Y-69155476D01*
X103785714Y-69155476D02*
X103833333Y-69345952D01*
X103833333Y-69345952D02*
X103833333Y-69488809D01*
X103833333Y-69488809D02*
X103785714Y-69679285D01*
X103785714Y-69679285D02*
X103738095Y-69774523D01*
X103738095Y-69774523D02*
X103642857Y-69869761D01*
X103642857Y-69869761D02*
X103500000Y-69917380D01*
X103500000Y-69917380D02*
X103261905Y-69917380D01*
X104166667Y-68917380D02*
X104785714Y-68917380D01*
X104785714Y-68917380D02*
X104452381Y-69298333D01*
X104452381Y-69298333D02*
X104595238Y-69298333D01*
X104595238Y-69298333D02*
X104690476Y-69345952D01*
X104690476Y-69345952D02*
X104738095Y-69393571D01*
X104738095Y-69393571D02*
X104785714Y-69488809D01*
X104785714Y-69488809D02*
X104785714Y-69726904D01*
X104785714Y-69726904D02*
X104738095Y-69822142D01*
X104738095Y-69822142D02*
X104690476Y-69869761D01*
X104690476Y-69869761D02*
X104595238Y-69917380D01*
X104595238Y-69917380D02*
X104309524Y-69917380D01*
X104309524Y-69917380D02*
X104214286Y-69869761D01*
X104214286Y-69869761D02*
X104166667Y-69822142D01*
%TO.C,J8*%
X125287380Y-112269523D02*
X125287380Y-112459999D01*
X125287380Y-112459999D02*
X125335000Y-112555237D01*
X125335000Y-112555237D02*
X125382619Y-112602856D01*
X125382619Y-112602856D02*
X125525476Y-112698094D01*
X125525476Y-112698094D02*
X125715952Y-112745713D01*
X125715952Y-112745713D02*
X126096904Y-112745713D01*
X126096904Y-112745713D02*
X126192142Y-112698094D01*
X126192142Y-112698094D02*
X126239761Y-112650475D01*
X126239761Y-112650475D02*
X126287380Y-112555237D01*
X126287380Y-112555237D02*
X126287380Y-112364761D01*
X126287380Y-112364761D02*
X126239761Y-112269523D01*
X126239761Y-112269523D02*
X126192142Y-112221904D01*
X126192142Y-112221904D02*
X126096904Y-112174285D01*
X126096904Y-112174285D02*
X125858809Y-112174285D01*
X125858809Y-112174285D02*
X125763571Y-112221904D01*
X125763571Y-112221904D02*
X125715952Y-112269523D01*
X125715952Y-112269523D02*
X125668333Y-112364761D01*
X125668333Y-112364761D02*
X125668333Y-112555237D01*
X125668333Y-112555237D02*
X125715952Y-112650475D01*
X125715952Y-112650475D02*
X125763571Y-112698094D01*
X125763571Y-112698094D02*
X125858809Y-112745713D01*
%TO.C,J7*%
X125287380Y-122221904D02*
X125287380Y-122698094D01*
X125287380Y-122698094D02*
X125763571Y-122745713D01*
X125763571Y-122745713D02*
X125715952Y-122698094D01*
X125715952Y-122698094D02*
X125668333Y-122602856D01*
X125668333Y-122602856D02*
X125668333Y-122364761D01*
X125668333Y-122364761D02*
X125715952Y-122269523D01*
X125715952Y-122269523D02*
X125763571Y-122221904D01*
X125763571Y-122221904D02*
X125858809Y-122174285D01*
X125858809Y-122174285D02*
X126096904Y-122174285D01*
X126096904Y-122174285D02*
X126192142Y-122221904D01*
X126192142Y-122221904D02*
X126239761Y-122269523D01*
X126239761Y-122269523D02*
X126287380Y-122364761D01*
X126287380Y-122364761D02*
X126287380Y-122602856D01*
X126287380Y-122602856D02*
X126239761Y-122698094D01*
X126239761Y-122698094D02*
X126192142Y-122745713D01*
%TO.C,Q1*%
X124842261Y-84862619D02*
X124747023Y-84815000D01*
X124747023Y-84815000D02*
X124651785Y-84719761D01*
X124651785Y-84719761D02*
X124508928Y-84576904D01*
X124508928Y-84576904D02*
X124413690Y-84529285D01*
X124413690Y-84529285D02*
X124318452Y-84529285D01*
X124366071Y-84767380D02*
X124270833Y-84719761D01*
X124270833Y-84719761D02*
X124175595Y-84624523D01*
X124175595Y-84624523D02*
X124127976Y-84434047D01*
X124127976Y-84434047D02*
X124127976Y-84100714D01*
X124127976Y-84100714D02*
X124175595Y-83910238D01*
X124175595Y-83910238D02*
X124270833Y-83815000D01*
X124270833Y-83815000D02*
X124366071Y-83767380D01*
X124366071Y-83767380D02*
X124556547Y-83767380D01*
X124556547Y-83767380D02*
X124651785Y-83815000D01*
X124651785Y-83815000D02*
X124747023Y-83910238D01*
X124747023Y-83910238D02*
X124794642Y-84100714D01*
X124794642Y-84100714D02*
X124794642Y-84434047D01*
X124794642Y-84434047D02*
X124747023Y-84624523D01*
X124747023Y-84624523D02*
X124651785Y-84719761D01*
X124651785Y-84719761D02*
X124556547Y-84767380D01*
X124556547Y-84767380D02*
X124366071Y-84767380D01*
X125747023Y-84767380D02*
X125175595Y-84767380D01*
X125461309Y-84767380D02*
X125461309Y-83767380D01*
X125461309Y-83767380D02*
X125366071Y-83910238D01*
X125366071Y-83910238D02*
X125270833Y-84005476D01*
X125270833Y-84005476D02*
X125175595Y-84053095D01*
%TO.C,U1*%
X86217380Y-83761904D02*
X87026904Y-83761904D01*
X87026904Y-83761904D02*
X87122142Y-83714285D01*
X87122142Y-83714285D02*
X87169761Y-83666666D01*
X87169761Y-83666666D02*
X87217380Y-83571428D01*
X87217380Y-83571428D02*
X87217380Y-83380952D01*
X87217380Y-83380952D02*
X87169761Y-83285714D01*
X87169761Y-83285714D02*
X87122142Y-83238095D01*
X87122142Y-83238095D02*
X87026904Y-83190476D01*
X87026904Y-83190476D02*
X86217380Y-83190476D01*
X87217380Y-82190476D02*
X87217380Y-82761904D01*
X87217380Y-82476190D02*
X86217380Y-82476190D01*
X86217380Y-82476190D02*
X86360238Y-82571428D01*
X86360238Y-82571428D02*
X86455476Y-82666666D01*
X86455476Y-82666666D02*
X86503095Y-82761904D01*
%TO.C,SW1*%
X129567380Y-83333332D02*
X128567380Y-83333332D01*
X128567380Y-83333332D02*
X128567380Y-82952380D01*
X128567380Y-82952380D02*
X128615000Y-82857142D01*
X128615000Y-82857142D02*
X128662619Y-82809523D01*
X128662619Y-82809523D02*
X128757857Y-82761904D01*
X128757857Y-82761904D02*
X128900714Y-82761904D01*
X128900714Y-82761904D02*
X128995952Y-82809523D01*
X128995952Y-82809523D02*
X129043571Y-82857142D01*
X129043571Y-82857142D02*
X129091190Y-82952380D01*
X129091190Y-82952380D02*
X129091190Y-83333332D01*
X128567380Y-82428570D02*
X129567380Y-82190475D01*
X129567380Y-82190475D02*
X128853095Y-81999999D01*
X128853095Y-81999999D02*
X129567380Y-81809523D01*
X129567380Y-81809523D02*
X128567380Y-81571428D01*
X129567380Y-80619047D02*
X129091190Y-80952380D01*
X129567380Y-81190475D02*
X128567380Y-81190475D01*
X128567380Y-81190475D02*
X128567380Y-80809523D01*
X128567380Y-80809523D02*
X128615000Y-80714285D01*
X128615000Y-80714285D02*
X128662619Y-80666666D01*
X128662619Y-80666666D02*
X128757857Y-80619047D01*
X128757857Y-80619047D02*
X128900714Y-80619047D01*
X128900714Y-80619047D02*
X128995952Y-80666666D01*
X128995952Y-80666666D02*
X129043571Y-80714285D01*
X129043571Y-80714285D02*
X129091190Y-80809523D01*
X129091190Y-80809523D02*
X129091190Y-81190475D01*
%TO.C,J6*%
X93780714Y-122269523D02*
X94447380Y-122269523D01*
X93399761Y-122507618D02*
X94114047Y-122745713D01*
X94114047Y-122745713D02*
X94114047Y-122126666D01*
%TO.C,C8*%
X105333333Y-74272142D02*
X105285714Y-74319761D01*
X105285714Y-74319761D02*
X105142857Y-74367380D01*
X105142857Y-74367380D02*
X105047619Y-74367380D01*
X105047619Y-74367380D02*
X104904762Y-74319761D01*
X104904762Y-74319761D02*
X104809524Y-74224523D01*
X104809524Y-74224523D02*
X104761905Y-74129285D01*
X104761905Y-74129285D02*
X104714286Y-73938809D01*
X104714286Y-73938809D02*
X104714286Y-73795952D01*
X104714286Y-73795952D02*
X104761905Y-73605476D01*
X104761905Y-73605476D02*
X104809524Y-73510238D01*
X104809524Y-73510238D02*
X104904762Y-73415000D01*
X104904762Y-73415000D02*
X105047619Y-73367380D01*
X105047619Y-73367380D02*
X105142857Y-73367380D01*
X105142857Y-73367380D02*
X105285714Y-73415000D01*
X105285714Y-73415000D02*
X105333333Y-73462619D01*
X105904762Y-73795952D02*
X105809524Y-73748333D01*
X105809524Y-73748333D02*
X105761905Y-73700714D01*
X105761905Y-73700714D02*
X105714286Y-73605476D01*
X105714286Y-73605476D02*
X105714286Y-73557857D01*
X105714286Y-73557857D02*
X105761905Y-73462619D01*
X105761905Y-73462619D02*
X105809524Y-73415000D01*
X105809524Y-73415000D02*
X105904762Y-73367380D01*
X105904762Y-73367380D02*
X106095238Y-73367380D01*
X106095238Y-73367380D02*
X106190476Y-73415000D01*
X106190476Y-73415000D02*
X106238095Y-73462619D01*
X106238095Y-73462619D02*
X106285714Y-73557857D01*
X106285714Y-73557857D02*
X106285714Y-73605476D01*
X106285714Y-73605476D02*
X106238095Y-73700714D01*
X106238095Y-73700714D02*
X106190476Y-73748333D01*
X106190476Y-73748333D02*
X106095238Y-73795952D01*
X106095238Y-73795952D02*
X105904762Y-73795952D01*
X105904762Y-73795952D02*
X105809524Y-73843571D01*
X105809524Y-73843571D02*
X105761905Y-73891190D01*
X105761905Y-73891190D02*
X105714286Y-73986428D01*
X105714286Y-73986428D02*
X105714286Y-74176904D01*
X105714286Y-74176904D02*
X105761905Y-74272142D01*
X105761905Y-74272142D02*
X105809524Y-74319761D01*
X105809524Y-74319761D02*
X105904762Y-74367380D01*
X105904762Y-74367380D02*
X106095238Y-74367380D01*
X106095238Y-74367380D02*
X106190476Y-74319761D01*
X106190476Y-74319761D02*
X106238095Y-74272142D01*
X106238095Y-74272142D02*
X106285714Y-74176904D01*
X106285714Y-74176904D02*
X106285714Y-73986428D01*
X106285714Y-73986428D02*
X106238095Y-73891190D01*
X106238095Y-73891190D02*
X106190476Y-73843571D01*
X106190476Y-73843571D02*
X106095238Y-73795952D01*
%TO.C,C3*%
X118333333Y-80272142D02*
X118285714Y-80319761D01*
X118285714Y-80319761D02*
X118142857Y-80367380D01*
X118142857Y-80367380D02*
X118047619Y-80367380D01*
X118047619Y-80367380D02*
X117904762Y-80319761D01*
X117904762Y-80319761D02*
X117809524Y-80224523D01*
X117809524Y-80224523D02*
X117761905Y-80129285D01*
X117761905Y-80129285D02*
X117714286Y-79938809D01*
X117714286Y-79938809D02*
X117714286Y-79795952D01*
X117714286Y-79795952D02*
X117761905Y-79605476D01*
X117761905Y-79605476D02*
X117809524Y-79510238D01*
X117809524Y-79510238D02*
X117904762Y-79415000D01*
X117904762Y-79415000D02*
X118047619Y-79367380D01*
X118047619Y-79367380D02*
X118142857Y-79367380D01*
X118142857Y-79367380D02*
X118285714Y-79415000D01*
X118285714Y-79415000D02*
X118333333Y-79462619D01*
X118666667Y-79367380D02*
X119285714Y-79367380D01*
X119285714Y-79367380D02*
X118952381Y-79748333D01*
X118952381Y-79748333D02*
X119095238Y-79748333D01*
X119095238Y-79748333D02*
X119190476Y-79795952D01*
X119190476Y-79795952D02*
X119238095Y-79843571D01*
X119238095Y-79843571D02*
X119285714Y-79938809D01*
X119285714Y-79938809D02*
X119285714Y-80176904D01*
X119285714Y-80176904D02*
X119238095Y-80272142D01*
X119238095Y-80272142D02*
X119190476Y-80319761D01*
X119190476Y-80319761D02*
X119095238Y-80367380D01*
X119095238Y-80367380D02*
X118809524Y-80367380D01*
X118809524Y-80367380D02*
X118714286Y-80319761D01*
X118714286Y-80319761D02*
X118666667Y-80272142D01*
%TO.C,C6*%
X105022142Y-79916666D02*
X105069761Y-79964285D01*
X105069761Y-79964285D02*
X105117380Y-80107142D01*
X105117380Y-80107142D02*
X105117380Y-80202380D01*
X105117380Y-80202380D02*
X105069761Y-80345237D01*
X105069761Y-80345237D02*
X104974523Y-80440475D01*
X104974523Y-80440475D02*
X104879285Y-80488094D01*
X104879285Y-80488094D02*
X104688809Y-80535713D01*
X104688809Y-80535713D02*
X104545952Y-80535713D01*
X104545952Y-80535713D02*
X104355476Y-80488094D01*
X104355476Y-80488094D02*
X104260238Y-80440475D01*
X104260238Y-80440475D02*
X104165000Y-80345237D01*
X104165000Y-80345237D02*
X104117380Y-80202380D01*
X104117380Y-80202380D02*
X104117380Y-80107142D01*
X104117380Y-80107142D02*
X104165000Y-79964285D01*
X104165000Y-79964285D02*
X104212619Y-79916666D01*
X104117380Y-79059523D02*
X104117380Y-79249999D01*
X104117380Y-79249999D02*
X104165000Y-79345237D01*
X104165000Y-79345237D02*
X104212619Y-79392856D01*
X104212619Y-79392856D02*
X104355476Y-79488094D01*
X104355476Y-79488094D02*
X104545952Y-79535713D01*
X104545952Y-79535713D02*
X104926904Y-79535713D01*
X104926904Y-79535713D02*
X105022142Y-79488094D01*
X105022142Y-79488094D02*
X105069761Y-79440475D01*
X105069761Y-79440475D02*
X105117380Y-79345237D01*
X105117380Y-79345237D02*
X105117380Y-79154761D01*
X105117380Y-79154761D02*
X105069761Y-79059523D01*
X105069761Y-79059523D02*
X105022142Y-79011904D01*
X105022142Y-79011904D02*
X104926904Y-78964285D01*
X104926904Y-78964285D02*
X104688809Y-78964285D01*
X104688809Y-78964285D02*
X104593571Y-79011904D01*
X104593571Y-79011904D02*
X104545952Y-79059523D01*
X104545952Y-79059523D02*
X104498333Y-79154761D01*
X104498333Y-79154761D02*
X104498333Y-79345237D01*
X104498333Y-79345237D02*
X104545952Y-79440475D01*
X104545952Y-79440475D02*
X104593571Y-79488094D01*
X104593571Y-79488094D02*
X104688809Y-79535713D01*
%TO.C,C5*%
X114333333Y-80272142D02*
X114285714Y-80319761D01*
X114285714Y-80319761D02*
X114142857Y-80367380D01*
X114142857Y-80367380D02*
X114047619Y-80367380D01*
X114047619Y-80367380D02*
X113904762Y-80319761D01*
X113904762Y-80319761D02*
X113809524Y-80224523D01*
X113809524Y-80224523D02*
X113761905Y-80129285D01*
X113761905Y-80129285D02*
X113714286Y-79938809D01*
X113714286Y-79938809D02*
X113714286Y-79795952D01*
X113714286Y-79795952D02*
X113761905Y-79605476D01*
X113761905Y-79605476D02*
X113809524Y-79510238D01*
X113809524Y-79510238D02*
X113904762Y-79415000D01*
X113904762Y-79415000D02*
X114047619Y-79367380D01*
X114047619Y-79367380D02*
X114142857Y-79367380D01*
X114142857Y-79367380D02*
X114285714Y-79415000D01*
X114285714Y-79415000D02*
X114333333Y-79462619D01*
X115238095Y-79367380D02*
X114761905Y-79367380D01*
X114761905Y-79367380D02*
X114714286Y-79843571D01*
X114714286Y-79843571D02*
X114761905Y-79795952D01*
X114761905Y-79795952D02*
X114857143Y-79748333D01*
X114857143Y-79748333D02*
X115095238Y-79748333D01*
X115095238Y-79748333D02*
X115190476Y-79795952D01*
X115190476Y-79795952D02*
X115238095Y-79843571D01*
X115238095Y-79843571D02*
X115285714Y-79938809D01*
X115285714Y-79938809D02*
X115285714Y-80176904D01*
X115285714Y-80176904D02*
X115238095Y-80272142D01*
X115238095Y-80272142D02*
X115190476Y-80319761D01*
X115190476Y-80319761D02*
X115095238Y-80367380D01*
X115095238Y-80367380D02*
X114857143Y-80367380D01*
X114857143Y-80367380D02*
X114761905Y-80319761D01*
X114761905Y-80319761D02*
X114714286Y-80272142D01*
%TO.C,R4*%
X127583333Y-84667380D02*
X127250000Y-84191190D01*
X127011905Y-84667380D02*
X127011905Y-83667380D01*
X127011905Y-83667380D02*
X127392857Y-83667380D01*
X127392857Y-83667380D02*
X127488095Y-83715000D01*
X127488095Y-83715000D02*
X127535714Y-83762619D01*
X127535714Y-83762619D02*
X127583333Y-83857857D01*
X127583333Y-83857857D02*
X127583333Y-84000714D01*
X127583333Y-84000714D02*
X127535714Y-84095952D01*
X127535714Y-84095952D02*
X127488095Y-84143571D01*
X127488095Y-84143571D02*
X127392857Y-84191190D01*
X127392857Y-84191190D02*
X127011905Y-84191190D01*
X128440476Y-84000714D02*
X128440476Y-84667380D01*
X128202381Y-83619761D02*
X127964286Y-84334047D01*
X127964286Y-84334047D02*
X128583333Y-84334047D01*
%TO.C,J10*%
X125715952Y-92555237D02*
X125668333Y-92650475D01*
X125668333Y-92650475D02*
X125620714Y-92698094D01*
X125620714Y-92698094D02*
X125525476Y-92745713D01*
X125525476Y-92745713D02*
X125477857Y-92745713D01*
X125477857Y-92745713D02*
X125382619Y-92698094D01*
X125382619Y-92698094D02*
X125335000Y-92650475D01*
X125335000Y-92650475D02*
X125287380Y-92555237D01*
X125287380Y-92555237D02*
X125287380Y-92364761D01*
X125287380Y-92364761D02*
X125335000Y-92269523D01*
X125335000Y-92269523D02*
X125382619Y-92221904D01*
X125382619Y-92221904D02*
X125477857Y-92174285D01*
X125477857Y-92174285D02*
X125525476Y-92174285D01*
X125525476Y-92174285D02*
X125620714Y-92221904D01*
X125620714Y-92221904D02*
X125668333Y-92269523D01*
X125668333Y-92269523D02*
X125715952Y-92364761D01*
X125715952Y-92364761D02*
X125715952Y-92555237D01*
X125715952Y-92555237D02*
X125763571Y-92650475D01*
X125763571Y-92650475D02*
X125811190Y-92698094D01*
X125811190Y-92698094D02*
X125906428Y-92745713D01*
X125906428Y-92745713D02*
X126096904Y-92745713D01*
X126096904Y-92745713D02*
X126192142Y-92698094D01*
X126192142Y-92698094D02*
X126239761Y-92650475D01*
X126239761Y-92650475D02*
X126287380Y-92555237D01*
X126287380Y-92555237D02*
X126287380Y-92364761D01*
X126287380Y-92364761D02*
X126239761Y-92269523D01*
X126239761Y-92269523D02*
X126192142Y-92221904D01*
X126192142Y-92221904D02*
X126096904Y-92174285D01*
X126096904Y-92174285D02*
X125906428Y-92174285D01*
X125906428Y-92174285D02*
X125811190Y-92221904D01*
X125811190Y-92221904D02*
X125763571Y-92269523D01*
X125763571Y-92269523D02*
X125715952Y-92364761D01*
%TO.C,U2*%
X109238095Y-109367380D02*
X109238095Y-110176904D01*
X109238095Y-110176904D02*
X109285714Y-110272142D01*
X109285714Y-110272142D02*
X109333333Y-110319761D01*
X109333333Y-110319761D02*
X109428571Y-110367380D01*
X109428571Y-110367380D02*
X109619047Y-110367380D01*
X109619047Y-110367380D02*
X109714285Y-110319761D01*
X109714285Y-110319761D02*
X109761904Y-110272142D01*
X109761904Y-110272142D02*
X109809523Y-110176904D01*
X109809523Y-110176904D02*
X109809523Y-109367380D01*
X110238095Y-109462619D02*
X110285714Y-109415000D01*
X110285714Y-109415000D02*
X110380952Y-109367380D01*
X110380952Y-109367380D02*
X110619047Y-109367380D01*
X110619047Y-109367380D02*
X110714285Y-109415000D01*
X110714285Y-109415000D02*
X110761904Y-109462619D01*
X110761904Y-109462619D02*
X110809523Y-109557857D01*
X110809523Y-109557857D02*
X110809523Y-109653095D01*
X110809523Y-109653095D02*
X110761904Y-109795952D01*
X110761904Y-109795952D02*
X110190476Y-110367380D01*
X110190476Y-110367380D02*
X110809523Y-110367380D01*
%TO.C,U3*%
X106117380Y-73011904D02*
X106926904Y-73011904D01*
X106926904Y-73011904D02*
X107022142Y-72964285D01*
X107022142Y-72964285D02*
X107069761Y-72916666D01*
X107069761Y-72916666D02*
X107117380Y-72821428D01*
X107117380Y-72821428D02*
X107117380Y-72630952D01*
X107117380Y-72630952D02*
X107069761Y-72535714D01*
X107069761Y-72535714D02*
X107022142Y-72488095D01*
X107022142Y-72488095D02*
X106926904Y-72440476D01*
X106926904Y-72440476D02*
X106117380Y-72440476D01*
X106117380Y-72059523D02*
X106117380Y-71440476D01*
X106117380Y-71440476D02*
X106498333Y-71773809D01*
X106498333Y-71773809D02*
X106498333Y-71630952D01*
X106498333Y-71630952D02*
X106545952Y-71535714D01*
X106545952Y-71535714D02*
X106593571Y-71488095D01*
X106593571Y-71488095D02*
X106688809Y-71440476D01*
X106688809Y-71440476D02*
X106926904Y-71440476D01*
X106926904Y-71440476D02*
X107022142Y-71488095D01*
X107022142Y-71488095D02*
X107069761Y-71535714D01*
X107069761Y-71535714D02*
X107117380Y-71630952D01*
X107117380Y-71630952D02*
X107117380Y-71916666D01*
X107117380Y-71916666D02*
X107069761Y-72011904D01*
X107069761Y-72011904D02*
X107022142Y-72059523D01*
%TO.C,D5*%
X107361905Y-69817380D02*
X107361905Y-68817380D01*
X107361905Y-68817380D02*
X107600000Y-68817380D01*
X107600000Y-68817380D02*
X107742857Y-68865000D01*
X107742857Y-68865000D02*
X107838095Y-68960238D01*
X107838095Y-68960238D02*
X107885714Y-69055476D01*
X107885714Y-69055476D02*
X107933333Y-69245952D01*
X107933333Y-69245952D02*
X107933333Y-69388809D01*
X107933333Y-69388809D02*
X107885714Y-69579285D01*
X107885714Y-69579285D02*
X107838095Y-69674523D01*
X107838095Y-69674523D02*
X107742857Y-69769761D01*
X107742857Y-69769761D02*
X107600000Y-69817380D01*
X107600000Y-69817380D02*
X107361905Y-69817380D01*
X108838095Y-68817380D02*
X108361905Y-68817380D01*
X108361905Y-68817380D02*
X108314286Y-69293571D01*
X108314286Y-69293571D02*
X108361905Y-69245952D01*
X108361905Y-69245952D02*
X108457143Y-69198333D01*
X108457143Y-69198333D02*
X108695238Y-69198333D01*
X108695238Y-69198333D02*
X108790476Y-69245952D01*
X108790476Y-69245952D02*
X108838095Y-69293571D01*
X108838095Y-69293571D02*
X108885714Y-69388809D01*
X108885714Y-69388809D02*
X108885714Y-69626904D01*
X108885714Y-69626904D02*
X108838095Y-69722142D01*
X108838095Y-69722142D02*
X108790476Y-69769761D01*
X108790476Y-69769761D02*
X108695238Y-69817380D01*
X108695238Y-69817380D02*
X108457143Y-69817380D01*
X108457143Y-69817380D02*
X108361905Y-69769761D01*
X108361905Y-69769761D02*
X108314286Y-69722142D01*
%TO.C,C1*%
X88833333Y-77342142D02*
X88785714Y-77389761D01*
X88785714Y-77389761D02*
X88642857Y-77437380D01*
X88642857Y-77437380D02*
X88547619Y-77437380D01*
X88547619Y-77437380D02*
X88404762Y-77389761D01*
X88404762Y-77389761D02*
X88309524Y-77294523D01*
X88309524Y-77294523D02*
X88261905Y-77199285D01*
X88261905Y-77199285D02*
X88214286Y-77008809D01*
X88214286Y-77008809D02*
X88214286Y-76865952D01*
X88214286Y-76865952D02*
X88261905Y-76675476D01*
X88261905Y-76675476D02*
X88309524Y-76580238D01*
X88309524Y-76580238D02*
X88404762Y-76485000D01*
X88404762Y-76485000D02*
X88547619Y-76437380D01*
X88547619Y-76437380D02*
X88642857Y-76437380D01*
X88642857Y-76437380D02*
X88785714Y-76485000D01*
X88785714Y-76485000D02*
X88833333Y-76532619D01*
X89785714Y-77437380D02*
X89214286Y-77437380D01*
X89500000Y-77437380D02*
X89500000Y-76437380D01*
X89500000Y-76437380D02*
X89404762Y-76580238D01*
X89404762Y-76580238D02*
X89309524Y-76675476D01*
X89309524Y-76675476D02*
X89214286Y-76723095D01*
D11*
%TO.C,D2*%
X100990000Y-68685000D02*
X102910000Y-68685000D01*
X102910000Y-68685000D02*
X102910000Y-66000000D01*
X100990000Y-66000000D02*
X100990000Y-68685000D01*
%TO.C,D4*%
X105090000Y-68685000D02*
X107010000Y-68685000D01*
X107010000Y-68685000D02*
X107010000Y-66000000D01*
X105090000Y-66000000D02*
X105090000Y-68685000D01*
%TO.C,C2*%
X115260000Y-71859420D02*
X115260000Y-72140580D01*
X114240000Y-71859420D02*
X114240000Y-72140580D01*
%TO.C,J3*%
X88000000Y-96670000D02*
X92000000Y-96670000D01*
X86970000Y-96380000D02*
X92990000Y-96380000D01*
X92990000Y-96380000D02*
X92990000Y-88540000D01*
X86970000Y-95800000D02*
X87570000Y-95800000D01*
X87570000Y-95800000D02*
X87570000Y-94200000D01*
X91990000Y-95000000D02*
X91460000Y-94750000D01*
X91990000Y-95000000D02*
X91990000Y-89920000D01*
X92990000Y-95000000D02*
X91990000Y-95000000D01*
X91460000Y-94750000D02*
X91460000Y-90170000D01*
X92990000Y-94750000D02*
X91990000Y-94750000D01*
X87570000Y-94200000D02*
X86970000Y-94200000D01*
X86970000Y-93260000D02*
X87570000Y-93260000D01*
X87570000Y-93260000D02*
X87570000Y-91660000D01*
X87570000Y-91660000D02*
X86970000Y-91660000D01*
X86970000Y-90720000D02*
X87570000Y-90720000D01*
X87570000Y-90720000D02*
X87570000Y-89120000D01*
X91460000Y-90170000D02*
X91990000Y-89920000D01*
X92990000Y-90170000D02*
X91990000Y-90170000D01*
X91990000Y-89920000D02*
X92990000Y-89920000D01*
X87570000Y-89120000D02*
X86970000Y-89120000D01*
X86970000Y-88540000D02*
X86970000Y-96380000D01*
X92990000Y-88540000D02*
X86970000Y-88540000D01*
%TO.C,R2*%
X116772500Y-71762742D02*
X116772500Y-72237258D01*
X115727500Y-71762742D02*
X115727500Y-72237258D01*
%TO.C,J4*%
X88000000Y-106670000D02*
X92000000Y-106670000D01*
X86970000Y-106380000D02*
X92990000Y-106380000D01*
X92990000Y-106380000D02*
X92990000Y-98540000D01*
X86970000Y-105800000D02*
X87570000Y-105800000D01*
X87570000Y-105800000D02*
X87570000Y-104200000D01*
X91990000Y-105000000D02*
X91460000Y-104750000D01*
X91990000Y-105000000D02*
X91990000Y-99920000D01*
X92990000Y-105000000D02*
X91990000Y-105000000D01*
X91460000Y-104750000D02*
X91460000Y-100170000D01*
X92990000Y-104750000D02*
X91990000Y-104750000D01*
X87570000Y-104200000D02*
X86970000Y-104200000D01*
X86970000Y-103260000D02*
X87570000Y-103260000D01*
X87570000Y-103260000D02*
X87570000Y-101660000D01*
X87570000Y-101660000D02*
X86970000Y-101660000D01*
X86970000Y-100720000D02*
X87570000Y-100720000D01*
X87570000Y-100720000D02*
X87570000Y-99120000D01*
X91460000Y-100170000D02*
X91990000Y-99920000D01*
X92990000Y-100170000D02*
X91990000Y-100170000D01*
X91990000Y-99920000D02*
X92990000Y-99920000D01*
X87570000Y-99120000D02*
X86970000Y-99120000D01*
X86970000Y-98540000D02*
X86970000Y-106380000D01*
X92990000Y-98540000D02*
X86970000Y-98540000D01*
%TO.C,D1*%
X96290000Y-132285000D02*
X98210000Y-132285000D01*
X98210000Y-132285000D02*
X98210000Y-129600000D01*
X96290000Y-129600000D02*
X96290000Y-132285000D01*
%TO.C,J9*%
X132000000Y-98250000D02*
X128000000Y-98250000D01*
X133030000Y-98540000D02*
X127010000Y-98540000D01*
X127010000Y-98540000D02*
X127010000Y-106380000D01*
X133030000Y-99120000D02*
X132430000Y-99120000D01*
X132430000Y-99120000D02*
X132430000Y-100720000D01*
X128010000Y-99920000D02*
X128540000Y-100170000D01*
X128010000Y-99920000D02*
X128010000Y-105000000D01*
X127010000Y-99920000D02*
X128010000Y-99920000D01*
X128540000Y-100170000D02*
X128540000Y-104750000D01*
X127010000Y-100170000D02*
X128010000Y-100170000D01*
X132430000Y-100720000D02*
X133030000Y-100720000D01*
X133030000Y-101660000D02*
X132430000Y-101660000D01*
X132430000Y-101660000D02*
X132430000Y-103260000D01*
X132430000Y-103260000D02*
X133030000Y-103260000D01*
X133030000Y-104200000D02*
X132430000Y-104200000D01*
X132430000Y-104200000D02*
X132430000Y-105800000D01*
X128540000Y-104750000D02*
X128010000Y-105000000D01*
X127010000Y-104750000D02*
X128010000Y-104750000D01*
X128010000Y-105000000D02*
X127010000Y-105000000D01*
X132430000Y-105800000D02*
X133030000Y-105800000D01*
X133030000Y-106380000D02*
X133030000Y-98540000D01*
X127010000Y-106380000D02*
X133030000Y-106380000D01*
%TO.C,C4*%
X117235000Y-77238748D02*
X117235000Y-77761252D01*
X115765000Y-77238748D02*
X115765000Y-77761252D01*
%TO.C,R3*%
X105727500Y-77662258D02*
X105727500Y-77187742D01*
X106772500Y-77662258D02*
X106772500Y-77187742D01*
%TO.C,J5*%
X88000000Y-116670000D02*
X92000000Y-116670000D01*
X86970000Y-116380000D02*
X92990000Y-116380000D01*
X92990000Y-116380000D02*
X92990000Y-108540000D01*
X86970000Y-115800000D02*
X87570000Y-115800000D01*
X87570000Y-115800000D02*
X87570000Y-114200000D01*
X91990000Y-115000000D02*
X91460000Y-114750000D01*
X91990000Y-115000000D02*
X91990000Y-109920000D01*
X92990000Y-115000000D02*
X91990000Y-115000000D01*
X91460000Y-114750000D02*
X91460000Y-110170000D01*
X92990000Y-114750000D02*
X91990000Y-114750000D01*
X87570000Y-114200000D02*
X86970000Y-114200000D01*
X86970000Y-113260000D02*
X87570000Y-113260000D01*
X87570000Y-113260000D02*
X87570000Y-111660000D01*
X87570000Y-111660000D02*
X86970000Y-111660000D01*
X86970000Y-110720000D02*
X87570000Y-110720000D01*
X87570000Y-110720000D02*
X87570000Y-109120000D01*
X91460000Y-110170000D02*
X91990000Y-109920000D01*
X92990000Y-110170000D02*
X91990000Y-110170000D01*
X91990000Y-109920000D02*
X92990000Y-109920000D01*
X87570000Y-109120000D02*
X86970000Y-109120000D01*
X86970000Y-108540000D02*
X86970000Y-116380000D01*
X92990000Y-108540000D02*
X86970000Y-108540000D01*
%TO.C,C7*%
X117240000Y-72140580D02*
X117240000Y-71859420D01*
X118260000Y-72140580D02*
X118260000Y-71859420D01*
%TO.C,L1*%
X112000000Y-82250000D02*
X108000000Y-82250000D01*
X112000000Y-81650000D02*
X112000000Y-82250000D01*
X112000000Y-78250000D02*
X112000000Y-78850000D01*
X108000000Y-82250000D02*
X108000000Y-81650000D01*
X108000000Y-78850000D02*
X108000000Y-78250000D01*
X108000000Y-78250000D02*
X112000000Y-78250000D01*
%TO.C,D3*%
X104960000Y-65315000D02*
X103040000Y-65315000D01*
X103040000Y-65315000D02*
X103040000Y-68000000D01*
X104960000Y-68000000D02*
X104960000Y-65315000D01*
%TO.C,J8*%
X132000000Y-108250000D02*
X128000000Y-108250000D01*
X133030000Y-108540000D02*
X127010000Y-108540000D01*
X127010000Y-108540000D02*
X127010000Y-116380000D01*
X133030000Y-109120000D02*
X132430000Y-109120000D01*
X132430000Y-109120000D02*
X132430000Y-110720000D01*
X128010000Y-109920000D02*
X128540000Y-110170000D01*
X128010000Y-109920000D02*
X128010000Y-115000000D01*
X127010000Y-109920000D02*
X128010000Y-109920000D01*
X128540000Y-110170000D02*
X128540000Y-114750000D01*
X127010000Y-110170000D02*
X128010000Y-110170000D01*
X132430000Y-110720000D02*
X133030000Y-110720000D01*
X133030000Y-111660000D02*
X132430000Y-111660000D01*
X132430000Y-111660000D02*
X132430000Y-113260000D01*
X132430000Y-113260000D02*
X133030000Y-113260000D01*
X133030000Y-114200000D02*
X132430000Y-114200000D01*
X132430000Y-114200000D02*
X132430000Y-115800000D01*
X128540000Y-114750000D02*
X128010000Y-115000000D01*
X127010000Y-114750000D02*
X128010000Y-114750000D01*
X128010000Y-115000000D02*
X127010000Y-115000000D01*
X132430000Y-115800000D02*
X133030000Y-115800000D01*
X133030000Y-116380000D02*
X133030000Y-108540000D01*
X127010000Y-116380000D02*
X133030000Y-116380000D01*
%TO.C,J7*%
X132000000Y-118250000D02*
X128000000Y-118250000D01*
X133030000Y-118540000D02*
X127010000Y-118540000D01*
X127010000Y-118540000D02*
X127010000Y-126380000D01*
X133030000Y-119120000D02*
X132430000Y-119120000D01*
X132430000Y-119120000D02*
X132430000Y-120720000D01*
X128010000Y-119920000D02*
X128540000Y-120170000D01*
X128010000Y-119920000D02*
X128010000Y-125000000D01*
X127010000Y-119920000D02*
X128010000Y-119920000D01*
X128540000Y-120170000D02*
X128540000Y-124750000D01*
X127010000Y-120170000D02*
X128010000Y-120170000D01*
X132430000Y-120720000D02*
X133030000Y-120720000D01*
X133030000Y-121660000D02*
X132430000Y-121660000D01*
X132430000Y-121660000D02*
X132430000Y-123260000D01*
X132430000Y-123260000D02*
X133030000Y-123260000D01*
X133030000Y-124200000D02*
X132430000Y-124200000D01*
X132430000Y-124200000D02*
X132430000Y-125800000D01*
X128540000Y-124750000D02*
X128010000Y-125000000D01*
X127010000Y-124750000D02*
X128010000Y-124750000D01*
X128010000Y-125000000D02*
X127010000Y-125000000D01*
X132430000Y-125800000D02*
X133030000Y-125800000D01*
X133030000Y-126380000D02*
X133030000Y-118540000D01*
X127010000Y-126380000D02*
X133030000Y-126380000D01*
%TO.C,J1*%
X118900000Y-69512500D02*
X118450000Y-69512500D01*
X118900000Y-67662500D02*
X118900000Y-69512500D01*
X118900000Y-65112500D02*
X118900000Y-65362500D01*
X116700000Y-70062500D02*
X116700000Y-69612500D01*
X116700000Y-70062500D02*
X116250000Y-70062500D01*
X111100000Y-69512500D02*
X111550000Y-69512500D01*
X111100000Y-67662500D02*
X111100000Y-69512500D01*
X111100000Y-65112500D02*
X111100000Y-65362500D01*
%TO.C,Q1*%
X124937500Y-83560000D02*
X126612500Y-83560000D01*
X124937500Y-83560000D02*
X124287500Y-83560000D01*
X124937500Y-80440000D02*
X125587500Y-80440000D01*
X124937500Y-80440000D02*
X124287500Y-80440000D01*
%TO.C,U1*%
X87690000Y-83000000D02*
X87690000Y-86450000D01*
X87690000Y-83000000D02*
X87690000Y-81050000D01*
X97810000Y-83000000D02*
X97810000Y-84950000D01*
X97810000Y-83000000D02*
X97810000Y-81050000D01*
%TO.C,SW1*%
X129800000Y-86350000D02*
X129800000Y-77650000D01*
X130750000Y-86350000D02*
X129800000Y-86350000D01*
X134200000Y-86350000D02*
X133250000Y-86350000D01*
X129800000Y-77650000D02*
X130750000Y-77650000D01*
X133250000Y-77650000D02*
X134200000Y-77650000D01*
X134200000Y-77650000D02*
X134200000Y-86350000D01*
%TO.C,J6*%
X88000000Y-126670000D02*
X92000000Y-126670000D01*
X86970000Y-126380000D02*
X92990000Y-126380000D01*
X92990000Y-126380000D02*
X92990000Y-118540000D01*
X86970000Y-125800000D02*
X87570000Y-125800000D01*
X87570000Y-125800000D02*
X87570000Y-124200000D01*
X91990000Y-125000000D02*
X91460000Y-124750000D01*
X91990000Y-125000000D02*
X91990000Y-119920000D01*
X92990000Y-125000000D02*
X91990000Y-125000000D01*
X91460000Y-124750000D02*
X91460000Y-120170000D01*
X92990000Y-124750000D02*
X91990000Y-124750000D01*
X87570000Y-124200000D02*
X86970000Y-124200000D01*
X86970000Y-123260000D02*
X87570000Y-123260000D01*
X87570000Y-123260000D02*
X87570000Y-121660000D01*
X87570000Y-121660000D02*
X86970000Y-121660000D01*
X86970000Y-120720000D02*
X87570000Y-120720000D01*
X87570000Y-120720000D02*
X87570000Y-119120000D01*
X91460000Y-120170000D02*
X91990000Y-119920000D01*
X92990000Y-120170000D02*
X91990000Y-120170000D01*
X91990000Y-119920000D02*
X92990000Y-119920000D01*
X87570000Y-119120000D02*
X86970000Y-119120000D01*
X86970000Y-118540000D02*
X86970000Y-126380000D01*
X92990000Y-118540000D02*
X86970000Y-118540000D01*
%TO.C,C8*%
X105640580Y-75685000D02*
X105359420Y-75685000D01*
X105640580Y-74665000D02*
X105359420Y-74665000D01*
%TO.C,C3*%
X119235000Y-77238748D02*
X119235000Y-77761252D01*
X117765000Y-77238748D02*
X117765000Y-77761252D01*
%TO.C,C6*%
X104240000Y-77565580D02*
X104240000Y-77284420D01*
X105260000Y-77565580D02*
X105260000Y-77284420D01*
%TO.C,C5*%
X115235000Y-77238748D02*
X115235000Y-77761252D01*
X113765000Y-77238748D02*
X113765000Y-77761252D01*
%TO.C,R4*%
X127227500Y-82237258D02*
X127227500Y-81762742D01*
X128272500Y-82237258D02*
X128272500Y-81762742D01*
%TO.C,J10*%
X132000000Y-88250000D02*
X128000000Y-88250000D01*
X133030000Y-88540000D02*
X127010000Y-88540000D01*
X127010000Y-88540000D02*
X127010000Y-96380000D01*
X133030000Y-89120000D02*
X132430000Y-89120000D01*
X132430000Y-89120000D02*
X132430000Y-90720000D01*
X128010000Y-89920000D02*
X128540000Y-90170000D01*
X128010000Y-89920000D02*
X128010000Y-95000000D01*
X127010000Y-89920000D02*
X128010000Y-89920000D01*
X128540000Y-90170000D02*
X128540000Y-94750000D01*
X127010000Y-90170000D02*
X128010000Y-90170000D01*
X132430000Y-90720000D02*
X133030000Y-90720000D01*
X133030000Y-91660000D02*
X132430000Y-91660000D01*
X132430000Y-91660000D02*
X132430000Y-93260000D01*
X132430000Y-93260000D02*
X133030000Y-93260000D01*
X133030000Y-94200000D02*
X132430000Y-94200000D01*
X132430000Y-94200000D02*
X132430000Y-95800000D01*
X128540000Y-94750000D02*
X128010000Y-95000000D01*
X127010000Y-94750000D02*
X128010000Y-94750000D01*
X128010000Y-95000000D02*
X127010000Y-95000000D01*
X132430000Y-95800000D02*
X133030000Y-95800000D01*
X133030000Y-96380000D02*
X133030000Y-88540000D01*
X127010000Y-96380000D02*
X133030000Y-96380000D01*
%TO.C,U2*%
X120500000Y-135500000D02*
X120500000Y-135200000D01*
X120500000Y-135500000D02*
X99500000Y-135500000D01*
X120500000Y-133100000D02*
X120500000Y-132700000D01*
X120500000Y-132833000D02*
X117493000Y-132833000D01*
X120500000Y-130500000D02*
X120500000Y-130100000D01*
X120500000Y-128000000D02*
X120500000Y-127600000D01*
X120500000Y-125400000D02*
X120500000Y-125000000D01*
X120500000Y-122900000D02*
X120500000Y-122500000D01*
X120500000Y-120400000D02*
X120500000Y-120000000D01*
X120500000Y-117800000D02*
X120500000Y-117400000D01*
X120500000Y-115300000D02*
X120500000Y-114900000D01*
X120500000Y-112700000D02*
X120500000Y-112300000D01*
X120500000Y-110200000D02*
X120500000Y-109800000D01*
X120500000Y-107700000D02*
X120500000Y-107300000D01*
X120500000Y-105100000D02*
X120500000Y-104700000D01*
X120500000Y-102600000D02*
X120500000Y-102200000D01*
X120500000Y-100000000D02*
X120500000Y-99600000D01*
X120500000Y-97500000D02*
X120500000Y-97100000D01*
X120500000Y-94900000D02*
X120500000Y-94500000D01*
X120500000Y-92400000D02*
X120500000Y-92000000D01*
X120500000Y-89900000D02*
X120500000Y-89500000D01*
X120500000Y-87300000D02*
X120500000Y-86900000D01*
X117493000Y-132833000D02*
X117493000Y-135500000D01*
X113700000Y-84500000D02*
X120500000Y-84500000D01*
X111500000Y-84500000D02*
X111100000Y-84500000D01*
X108900000Y-84500000D02*
X108500000Y-84500000D01*
X99500000Y-135500000D02*
X99500000Y-135200000D01*
X99500000Y-133100000D02*
X99500000Y-132700000D01*
X99500000Y-130500000D02*
X99500000Y-130100000D01*
X99500000Y-128000000D02*
X99500000Y-127600000D01*
X99500000Y-125400000D02*
X99500000Y-125000000D01*
X99500000Y-122900000D02*
X99500000Y-122500000D01*
X99500000Y-120400000D02*
X99500000Y-120000000D01*
X99500000Y-117800000D02*
X99500000Y-117400000D01*
X99500000Y-115300000D02*
X99500000Y-114900000D01*
X99500000Y-112700000D02*
X99500000Y-112300000D01*
X99500000Y-110200000D02*
X99500000Y-109800000D01*
X99500000Y-107700000D02*
X99500000Y-107300000D01*
X99500000Y-105100000D02*
X99500000Y-104700000D01*
X99500000Y-102600000D02*
X99500000Y-102200000D01*
X99500000Y-100000000D02*
X99500000Y-99600000D01*
X99500000Y-97500000D02*
X99500000Y-97100000D01*
X99500000Y-94900000D02*
X99500000Y-94500000D01*
X99500000Y-92400000D02*
X99500000Y-92000000D01*
X99500000Y-89900000D02*
X99500000Y-89500000D01*
X99500000Y-87300000D02*
X99500000Y-86900000D01*
X99500000Y-84500000D02*
X106300000Y-84500000D01*
%TO.C,U3*%
X112560000Y-74100000D02*
X112560000Y-70650000D01*
X112560000Y-74100000D02*
X112560000Y-76050000D01*
X107440000Y-74100000D02*
X107440000Y-72150000D01*
X107440000Y-74100000D02*
X107440000Y-76050000D01*
%TO.C,D5*%
X109060000Y-65315000D02*
X107140000Y-65315000D01*
X107140000Y-65315000D02*
X107140000Y-68000000D01*
X109060000Y-68000000D02*
X109060000Y-65315000D01*
%TO.C,C1*%
X88859420Y-77990000D02*
X89140580Y-77990000D01*
X88859420Y-79010000D02*
X89140580Y-79010000D01*
%TD*%
M02*
