%TF.GenerationSoftware,KiCad,Pcbnew,(7.0.0)*%
%TF.CreationDate,2023-03-15T20:35:50+00:00*%
%TF.ProjectId,porta-jelly,706f7274-612d-46a6-956c-6c792e6b6963,rev?*%
%TF.SameCoordinates,Original*%
%TF.FileFunction,Legend,Bot*%
%TF.FilePolarity,Positive*%
%FSLAX46Y46*%
G04 Gerber Fmt 4.6, Leading zero omitted, Abs format (unit mm)*
G04 Created by KiCad (PCBNEW (7.0.0)) date 2023-03-15 20:35:50*
%MOMM*%
%LPD*%
G01*
G04 APERTURE LIST*
%ADD10C,0.300000*%
%ADD11C,0.150000*%
G04 APERTURE END LIST*
D10*
X106906071Y-104335714D02*
X105406071Y-104335714D01*
X105406071Y-104335714D02*
X105406071Y-104907143D01*
X105406071Y-104907143D02*
X105477500Y-105050000D01*
X105477500Y-105050000D02*
X105548928Y-105121429D01*
X105548928Y-105121429D02*
X105691785Y-105192857D01*
X105691785Y-105192857D02*
X105906071Y-105192857D01*
X105906071Y-105192857D02*
X106048928Y-105121429D01*
X106048928Y-105121429D02*
X106120357Y-105050000D01*
X106120357Y-105050000D02*
X106191785Y-104907143D01*
X106191785Y-104907143D02*
X106191785Y-104335714D01*
X106906071Y-106050000D02*
X106834642Y-105907143D01*
X106834642Y-105907143D02*
X106763214Y-105835714D01*
X106763214Y-105835714D02*
X106620357Y-105764286D01*
X106620357Y-105764286D02*
X106191785Y-105764286D01*
X106191785Y-105764286D02*
X106048928Y-105835714D01*
X106048928Y-105835714D02*
X105977500Y-105907143D01*
X105977500Y-105907143D02*
X105906071Y-106050000D01*
X105906071Y-106050000D02*
X105906071Y-106264286D01*
X105906071Y-106264286D02*
X105977500Y-106407143D01*
X105977500Y-106407143D02*
X106048928Y-106478572D01*
X106048928Y-106478572D02*
X106191785Y-106550000D01*
X106191785Y-106550000D02*
X106620357Y-106550000D01*
X106620357Y-106550000D02*
X106763214Y-106478572D01*
X106763214Y-106478572D02*
X106834642Y-106407143D01*
X106834642Y-106407143D02*
X106906071Y-106264286D01*
X106906071Y-106264286D02*
X106906071Y-106050000D01*
X106906071Y-107192857D02*
X105906071Y-107192857D01*
X106191785Y-107192857D02*
X106048928Y-107264286D01*
X106048928Y-107264286D02*
X105977500Y-107335715D01*
X105977500Y-107335715D02*
X105906071Y-107478572D01*
X105906071Y-107478572D02*
X105906071Y-107621429D01*
X105906071Y-107907143D02*
X105906071Y-108478571D01*
X105406071Y-108121428D02*
X106691785Y-108121428D01*
X106691785Y-108121428D02*
X106834642Y-108192857D01*
X106834642Y-108192857D02*
X106906071Y-108335714D01*
X106906071Y-108335714D02*
X106906071Y-108478571D01*
X106906071Y-109621429D02*
X106120357Y-109621429D01*
X106120357Y-109621429D02*
X105977500Y-109550000D01*
X105977500Y-109550000D02*
X105906071Y-109407143D01*
X105906071Y-109407143D02*
X105906071Y-109121429D01*
X105906071Y-109121429D02*
X105977500Y-108978571D01*
X106834642Y-109621429D02*
X106906071Y-109478571D01*
X106906071Y-109478571D02*
X106906071Y-109121429D01*
X106906071Y-109121429D02*
X106834642Y-108978571D01*
X106834642Y-108978571D02*
X106691785Y-108907143D01*
X106691785Y-108907143D02*
X106548928Y-108907143D01*
X106548928Y-108907143D02*
X106406071Y-108978571D01*
X106406071Y-108978571D02*
X106334642Y-109121429D01*
X106334642Y-109121429D02*
X106334642Y-109478571D01*
X106334642Y-109478571D02*
X106263214Y-109621429D01*
X105406071Y-111664286D02*
X106477500Y-111664286D01*
X106477500Y-111664286D02*
X106691785Y-111592857D01*
X106691785Y-111592857D02*
X106834642Y-111450000D01*
X106834642Y-111450000D02*
X106906071Y-111235714D01*
X106906071Y-111235714D02*
X106906071Y-111092857D01*
X106834642Y-112950000D02*
X106906071Y-112807143D01*
X106906071Y-112807143D02*
X106906071Y-112521429D01*
X106906071Y-112521429D02*
X106834642Y-112378571D01*
X106834642Y-112378571D02*
X106691785Y-112307143D01*
X106691785Y-112307143D02*
X106120357Y-112307143D01*
X106120357Y-112307143D02*
X105977500Y-112378571D01*
X105977500Y-112378571D02*
X105906071Y-112521429D01*
X105906071Y-112521429D02*
X105906071Y-112807143D01*
X105906071Y-112807143D02*
X105977500Y-112950000D01*
X105977500Y-112950000D02*
X106120357Y-113021429D01*
X106120357Y-113021429D02*
X106263214Y-113021429D01*
X106263214Y-113021429D02*
X106406071Y-112307143D01*
X106906071Y-113878571D02*
X106834642Y-113735714D01*
X106834642Y-113735714D02*
X106691785Y-113664285D01*
X106691785Y-113664285D02*
X105406071Y-113664285D01*
X106906071Y-114664285D02*
X106834642Y-114521428D01*
X106834642Y-114521428D02*
X106691785Y-114449999D01*
X106691785Y-114449999D02*
X105406071Y-114449999D01*
X105906071Y-115092856D02*
X106906071Y-115449999D01*
X105906071Y-115807142D02*
X106906071Y-115449999D01*
X106906071Y-115449999D02*
X107263214Y-115307142D01*
X107263214Y-115307142D02*
X107334642Y-115235713D01*
X107334642Y-115235713D02*
X107406071Y-115092856D01*
X108336071Y-92964285D02*
X109550357Y-92964285D01*
X109550357Y-92964285D02*
X109693214Y-92892856D01*
X109693214Y-92892856D02*
X109764642Y-92821427D01*
X109764642Y-92821427D02*
X109836071Y-92678570D01*
X109836071Y-92678570D02*
X109836071Y-92464285D01*
X109836071Y-92464285D02*
X109764642Y-92321427D01*
X109264642Y-92964285D02*
X109336071Y-92821427D01*
X109336071Y-92821427D02*
X109336071Y-92535713D01*
X109336071Y-92535713D02*
X109264642Y-92392856D01*
X109264642Y-92392856D02*
X109193214Y-92321427D01*
X109193214Y-92321427D02*
X109050357Y-92249999D01*
X109050357Y-92249999D02*
X108621785Y-92249999D01*
X108621785Y-92249999D02*
X108478928Y-92321427D01*
X108478928Y-92321427D02*
X108407500Y-92392856D01*
X108407500Y-92392856D02*
X108336071Y-92535713D01*
X108336071Y-92535713D02*
X108336071Y-92821427D01*
X108336071Y-92821427D02*
X108407500Y-92964285D01*
X109336071Y-93678570D02*
X107836071Y-93678570D01*
X109336071Y-94321428D02*
X108550357Y-94321428D01*
X108550357Y-94321428D02*
X108407500Y-94249999D01*
X108407500Y-94249999D02*
X108336071Y-94107142D01*
X108336071Y-94107142D02*
X108336071Y-93892856D01*
X108336071Y-93892856D02*
X108407500Y-93749999D01*
X108407500Y-93749999D02*
X108478928Y-93678570D01*
X108336071Y-95678571D02*
X109336071Y-95678571D01*
X108336071Y-95035713D02*
X109121785Y-95035713D01*
X109121785Y-95035713D02*
X109264642Y-95107142D01*
X109264642Y-95107142D02*
X109336071Y-95249999D01*
X109336071Y-95249999D02*
X109336071Y-95464285D01*
X109336071Y-95464285D02*
X109264642Y-95607142D01*
X109264642Y-95607142D02*
X109193214Y-95678571D01*
X109336071Y-96392856D02*
X107836071Y-96392856D01*
X108407500Y-96392856D02*
X108336071Y-96535714D01*
X108336071Y-96535714D02*
X108336071Y-96821428D01*
X108336071Y-96821428D02*
X108407500Y-96964285D01*
X108407500Y-96964285D02*
X108478928Y-97035714D01*
X108478928Y-97035714D02*
X108621785Y-97107142D01*
X108621785Y-97107142D02*
X109050357Y-97107142D01*
X109050357Y-97107142D02*
X109193214Y-97035714D01*
X109193214Y-97035714D02*
X109264642Y-96964285D01*
X109264642Y-96964285D02*
X109336071Y-96821428D01*
X109336071Y-96821428D02*
X109336071Y-96535714D01*
X109336071Y-96535714D02*
X109264642Y-96392856D01*
X109193214Y-97749999D02*
X109264642Y-97821428D01*
X109264642Y-97821428D02*
X109336071Y-97749999D01*
X109336071Y-97749999D02*
X109264642Y-97678571D01*
X109264642Y-97678571D02*
X109193214Y-97749999D01*
X109193214Y-97749999D02*
X109336071Y-97749999D01*
X108407500Y-97749999D02*
X108478928Y-97821428D01*
X108478928Y-97821428D02*
X108550357Y-97749999D01*
X108550357Y-97749999D02*
X108478928Y-97678571D01*
X108478928Y-97678571D02*
X108407500Y-97749999D01*
X108407500Y-97749999D02*
X108550357Y-97749999D01*
X109336071Y-98464285D02*
X107836071Y-98464285D01*
X108550357Y-98464285D02*
X108550357Y-99321428D01*
X109336071Y-99321428D02*
X107836071Y-99321428D01*
X109336071Y-100678572D02*
X108550357Y-100678572D01*
X108550357Y-100678572D02*
X108407500Y-100607143D01*
X108407500Y-100607143D02*
X108336071Y-100464286D01*
X108336071Y-100464286D02*
X108336071Y-100178572D01*
X108336071Y-100178572D02*
X108407500Y-100035714D01*
X109264642Y-100678572D02*
X109336071Y-100535714D01*
X109336071Y-100535714D02*
X109336071Y-100178572D01*
X109336071Y-100178572D02*
X109264642Y-100035714D01*
X109264642Y-100035714D02*
X109121785Y-99964286D01*
X109121785Y-99964286D02*
X108978928Y-99964286D01*
X108978928Y-99964286D02*
X108836071Y-100035714D01*
X108836071Y-100035714D02*
X108764642Y-100178572D01*
X108764642Y-100178572D02*
X108764642Y-100535714D01*
X108764642Y-100535714D02*
X108693214Y-100678572D01*
X109336071Y-101392857D02*
X108336071Y-101392857D01*
X108621785Y-101392857D02*
X108478928Y-101464286D01*
X108478928Y-101464286D02*
X108407500Y-101535715D01*
X108407500Y-101535715D02*
X108336071Y-101678572D01*
X108336071Y-101678572D02*
X108336071Y-101821429D01*
X109336071Y-102321428D02*
X107836071Y-102321428D01*
X108764642Y-102464286D02*
X109336071Y-102892857D01*
X108336071Y-102892857D02*
X108907500Y-102321428D01*
X109336071Y-103750000D02*
X109264642Y-103607143D01*
X109264642Y-103607143D02*
X109193214Y-103535714D01*
X109193214Y-103535714D02*
X109050357Y-103464286D01*
X109050357Y-103464286D02*
X108621785Y-103464286D01*
X108621785Y-103464286D02*
X108478928Y-103535714D01*
X108478928Y-103535714D02*
X108407500Y-103607143D01*
X108407500Y-103607143D02*
X108336071Y-103750000D01*
X108336071Y-103750000D02*
X108336071Y-103964286D01*
X108336071Y-103964286D02*
X108407500Y-104107143D01*
X108407500Y-104107143D02*
X108478928Y-104178572D01*
X108478928Y-104178572D02*
X108621785Y-104250000D01*
X108621785Y-104250000D02*
X109050357Y-104250000D01*
X109050357Y-104250000D02*
X109193214Y-104178572D01*
X109193214Y-104178572D02*
X109264642Y-104107143D01*
X109264642Y-104107143D02*
X109336071Y-103964286D01*
X109336071Y-103964286D02*
X109336071Y-103750000D01*
X108336071Y-104892857D02*
X109336071Y-104892857D01*
X108478928Y-104892857D02*
X108407500Y-104964286D01*
X108407500Y-104964286D02*
X108336071Y-105107143D01*
X108336071Y-105107143D02*
X108336071Y-105321429D01*
X108336071Y-105321429D02*
X108407500Y-105464286D01*
X108407500Y-105464286D02*
X108550357Y-105535715D01*
X108550357Y-105535715D02*
X109336071Y-105535715D01*
X109264642Y-106821429D02*
X109336071Y-106678572D01*
X109336071Y-106678572D02*
X109336071Y-106392858D01*
X109336071Y-106392858D02*
X109264642Y-106250000D01*
X109264642Y-106250000D02*
X109121785Y-106178572D01*
X109121785Y-106178572D02*
X108550357Y-106178572D01*
X108550357Y-106178572D02*
X108407500Y-106250000D01*
X108407500Y-106250000D02*
X108336071Y-106392858D01*
X108336071Y-106392858D02*
X108336071Y-106678572D01*
X108336071Y-106678572D02*
X108407500Y-106821429D01*
X108407500Y-106821429D02*
X108550357Y-106892858D01*
X108550357Y-106892858D02*
X108693214Y-106892858D01*
X108693214Y-106892858D02*
X108836071Y-106178572D01*
X108336071Y-107535714D02*
X109336071Y-107535714D01*
X108478928Y-107535714D02*
X108407500Y-107607143D01*
X108407500Y-107607143D02*
X108336071Y-107750000D01*
X108336071Y-107750000D02*
X108336071Y-107964286D01*
X108336071Y-107964286D02*
X108407500Y-108107143D01*
X108407500Y-108107143D02*
X108550357Y-108178572D01*
X108550357Y-108178572D02*
X109336071Y-108178572D01*
X108550357Y-109392857D02*
X108621785Y-109607143D01*
X108621785Y-109607143D02*
X108693214Y-109678572D01*
X108693214Y-109678572D02*
X108836071Y-109750000D01*
X108836071Y-109750000D02*
X109050357Y-109750000D01*
X109050357Y-109750000D02*
X109193214Y-109678572D01*
X109193214Y-109678572D02*
X109264642Y-109607143D01*
X109264642Y-109607143D02*
X109336071Y-109464286D01*
X109336071Y-109464286D02*
X109336071Y-108892857D01*
X109336071Y-108892857D02*
X107836071Y-108892857D01*
X107836071Y-108892857D02*
X107836071Y-109392857D01*
X107836071Y-109392857D02*
X107907500Y-109535715D01*
X107907500Y-109535715D02*
X107978928Y-109607143D01*
X107978928Y-109607143D02*
X108121785Y-109678572D01*
X108121785Y-109678572D02*
X108264642Y-109678572D01*
X108264642Y-109678572D02*
X108407500Y-109607143D01*
X108407500Y-109607143D02*
X108478928Y-109535715D01*
X108478928Y-109535715D02*
X108550357Y-109392857D01*
X108550357Y-109392857D02*
X108550357Y-108892857D01*
X109336071Y-111035715D02*
X108550357Y-111035715D01*
X108550357Y-111035715D02*
X108407500Y-110964286D01*
X108407500Y-110964286D02*
X108336071Y-110821429D01*
X108336071Y-110821429D02*
X108336071Y-110535715D01*
X108336071Y-110535715D02*
X108407500Y-110392857D01*
X109264642Y-111035715D02*
X109336071Y-110892857D01*
X109336071Y-110892857D02*
X109336071Y-110535715D01*
X109336071Y-110535715D02*
X109264642Y-110392857D01*
X109264642Y-110392857D02*
X109121785Y-110321429D01*
X109121785Y-110321429D02*
X108978928Y-110321429D01*
X108978928Y-110321429D02*
X108836071Y-110392857D01*
X108836071Y-110392857D02*
X108764642Y-110535715D01*
X108764642Y-110535715D02*
X108764642Y-110892857D01*
X108764642Y-110892857D02*
X108693214Y-111035715D01*
X109336071Y-112392858D02*
X107836071Y-112392858D01*
X109264642Y-112392858D02*
X109336071Y-112250000D01*
X109336071Y-112250000D02*
X109336071Y-111964286D01*
X109336071Y-111964286D02*
X109264642Y-111821429D01*
X109264642Y-111821429D02*
X109193214Y-111750000D01*
X109193214Y-111750000D02*
X109050357Y-111678572D01*
X109050357Y-111678572D02*
X108621785Y-111678572D01*
X108621785Y-111678572D02*
X108478928Y-111750000D01*
X108478928Y-111750000D02*
X108407500Y-111821429D01*
X108407500Y-111821429D02*
X108336071Y-111964286D01*
X108336071Y-111964286D02*
X108336071Y-112250000D01*
X108336071Y-112250000D02*
X108407500Y-112392858D01*
X109264642Y-113678572D02*
X109336071Y-113535715D01*
X109336071Y-113535715D02*
X109336071Y-113250001D01*
X109336071Y-113250001D02*
X109264642Y-113107143D01*
X109264642Y-113107143D02*
X109121785Y-113035715D01*
X109121785Y-113035715D02*
X108550357Y-113035715D01*
X108550357Y-113035715D02*
X108407500Y-113107143D01*
X108407500Y-113107143D02*
X108336071Y-113250001D01*
X108336071Y-113250001D02*
X108336071Y-113535715D01*
X108336071Y-113535715D02*
X108407500Y-113678572D01*
X108407500Y-113678572D02*
X108550357Y-113750001D01*
X108550357Y-113750001D02*
X108693214Y-113750001D01*
X108693214Y-113750001D02*
X108836071Y-113035715D01*
X107764642Y-115464286D02*
X109693214Y-114178572D01*
X108336071Y-115964286D02*
X109836071Y-115964286D01*
X108407500Y-115964286D02*
X108336071Y-116107144D01*
X108336071Y-116107144D02*
X108336071Y-116392858D01*
X108336071Y-116392858D02*
X108407500Y-116535715D01*
X108407500Y-116535715D02*
X108478928Y-116607144D01*
X108478928Y-116607144D02*
X108621785Y-116678572D01*
X108621785Y-116678572D02*
X109050357Y-116678572D01*
X109050357Y-116678572D02*
X109193214Y-116607144D01*
X109193214Y-116607144D02*
X109264642Y-116535715D01*
X109264642Y-116535715D02*
X109336071Y-116392858D01*
X109336071Y-116392858D02*
X109336071Y-116107144D01*
X109336071Y-116107144D02*
X109264642Y-115964286D01*
X109336071Y-117535715D02*
X109264642Y-117392858D01*
X109264642Y-117392858D02*
X109193214Y-117321429D01*
X109193214Y-117321429D02*
X109050357Y-117250001D01*
X109050357Y-117250001D02*
X108621785Y-117250001D01*
X108621785Y-117250001D02*
X108478928Y-117321429D01*
X108478928Y-117321429D02*
X108407500Y-117392858D01*
X108407500Y-117392858D02*
X108336071Y-117535715D01*
X108336071Y-117535715D02*
X108336071Y-117750001D01*
X108336071Y-117750001D02*
X108407500Y-117892858D01*
X108407500Y-117892858D02*
X108478928Y-117964287D01*
X108478928Y-117964287D02*
X108621785Y-118035715D01*
X108621785Y-118035715D02*
X109050357Y-118035715D01*
X109050357Y-118035715D02*
X109193214Y-117964287D01*
X109193214Y-117964287D02*
X109264642Y-117892858D01*
X109264642Y-117892858D02*
X109336071Y-117750001D01*
X109336071Y-117750001D02*
X109336071Y-117535715D01*
X109336071Y-118678572D02*
X108336071Y-118678572D01*
X108621785Y-118678572D02*
X108478928Y-118750001D01*
X108478928Y-118750001D02*
X108407500Y-118821430D01*
X108407500Y-118821430D02*
X108336071Y-118964287D01*
X108336071Y-118964287D02*
X108336071Y-119107144D01*
X108336071Y-119392858D02*
X108336071Y-119964286D01*
X107836071Y-119607143D02*
X109121785Y-119607143D01*
X109121785Y-119607143D02*
X109264642Y-119678572D01*
X109264642Y-119678572D02*
X109336071Y-119821429D01*
X109336071Y-119821429D02*
X109336071Y-119964286D01*
X109336071Y-121107144D02*
X108550357Y-121107144D01*
X108550357Y-121107144D02*
X108407500Y-121035715D01*
X108407500Y-121035715D02*
X108336071Y-120892858D01*
X108336071Y-120892858D02*
X108336071Y-120607144D01*
X108336071Y-120607144D02*
X108407500Y-120464286D01*
X109264642Y-121107144D02*
X109336071Y-120964286D01*
X109336071Y-120964286D02*
X109336071Y-120607144D01*
X109336071Y-120607144D02*
X109264642Y-120464286D01*
X109264642Y-120464286D02*
X109121785Y-120392858D01*
X109121785Y-120392858D02*
X108978928Y-120392858D01*
X108978928Y-120392858D02*
X108836071Y-120464286D01*
X108836071Y-120464286D02*
X108764642Y-120607144D01*
X108764642Y-120607144D02*
X108764642Y-120964286D01*
X108764642Y-120964286D02*
X108693214Y-121107144D01*
X108764642Y-121821429D02*
X108764642Y-122964287D01*
X108336071Y-123678572D02*
X109621785Y-123678572D01*
X109621785Y-123678572D02*
X109764642Y-123607144D01*
X109764642Y-123607144D02*
X109836071Y-123464287D01*
X109836071Y-123464287D02*
X109836071Y-123392858D01*
X107836071Y-123678572D02*
X107907500Y-123607144D01*
X107907500Y-123607144D02*
X107978928Y-123678572D01*
X107978928Y-123678572D02*
X107907500Y-123750001D01*
X107907500Y-123750001D02*
X107836071Y-123678572D01*
X107836071Y-123678572D02*
X107978928Y-123678572D01*
X109264642Y-124964287D02*
X109336071Y-124821430D01*
X109336071Y-124821430D02*
X109336071Y-124535716D01*
X109336071Y-124535716D02*
X109264642Y-124392858D01*
X109264642Y-124392858D02*
X109121785Y-124321430D01*
X109121785Y-124321430D02*
X108550357Y-124321430D01*
X108550357Y-124321430D02*
X108407500Y-124392858D01*
X108407500Y-124392858D02*
X108336071Y-124535716D01*
X108336071Y-124535716D02*
X108336071Y-124821430D01*
X108336071Y-124821430D02*
X108407500Y-124964287D01*
X108407500Y-124964287D02*
X108550357Y-125035716D01*
X108550357Y-125035716D02*
X108693214Y-125035716D01*
X108693214Y-125035716D02*
X108836071Y-124321430D01*
X109336071Y-125892858D02*
X109264642Y-125750001D01*
X109264642Y-125750001D02*
X109121785Y-125678572D01*
X109121785Y-125678572D02*
X107836071Y-125678572D01*
X109336071Y-126678572D02*
X109264642Y-126535715D01*
X109264642Y-126535715D02*
X109121785Y-126464286D01*
X109121785Y-126464286D02*
X107836071Y-126464286D01*
X108336071Y-127107143D02*
X109336071Y-127464286D01*
X108336071Y-127821429D02*
X109336071Y-127464286D01*
X109336071Y-127464286D02*
X109693214Y-127321429D01*
X109693214Y-127321429D02*
X109764642Y-127250000D01*
X109764642Y-127250000D02*
X109836071Y-127107143D01*
X111766071Y-105142856D02*
X110266071Y-105142856D01*
X110980357Y-105142856D02*
X110980357Y-105999999D01*
X111766071Y-105999999D02*
X110266071Y-105999999D01*
X111766071Y-107357143D02*
X110980357Y-107357143D01*
X110980357Y-107357143D02*
X110837500Y-107285714D01*
X110837500Y-107285714D02*
X110766071Y-107142857D01*
X110766071Y-107142857D02*
X110766071Y-106857143D01*
X110766071Y-106857143D02*
X110837500Y-106714285D01*
X111694642Y-107357143D02*
X111766071Y-107214285D01*
X111766071Y-107214285D02*
X111766071Y-106857143D01*
X111766071Y-106857143D02*
X111694642Y-106714285D01*
X111694642Y-106714285D02*
X111551785Y-106642857D01*
X111551785Y-106642857D02*
X111408928Y-106642857D01*
X111408928Y-106642857D02*
X111266071Y-106714285D01*
X111266071Y-106714285D02*
X111194642Y-106857143D01*
X111194642Y-106857143D02*
X111194642Y-107214285D01*
X111194642Y-107214285D02*
X111123214Y-107357143D01*
X111766071Y-108071428D02*
X110766071Y-108071428D01*
X111051785Y-108071428D02*
X110908928Y-108142857D01*
X110908928Y-108142857D02*
X110837500Y-108214286D01*
X110837500Y-108214286D02*
X110766071Y-108357143D01*
X110766071Y-108357143D02*
X110766071Y-108500000D01*
X111766071Y-108999999D02*
X110266071Y-108999999D01*
X111194642Y-109142857D02*
X111766071Y-109571428D01*
X110766071Y-109571428D02*
X111337500Y-108999999D01*
X111766071Y-110428571D02*
X111694642Y-110285714D01*
X111694642Y-110285714D02*
X111623214Y-110214285D01*
X111623214Y-110214285D02*
X111480357Y-110142857D01*
X111480357Y-110142857D02*
X111051785Y-110142857D01*
X111051785Y-110142857D02*
X110908928Y-110214285D01*
X110908928Y-110214285D02*
X110837500Y-110285714D01*
X110837500Y-110285714D02*
X110766071Y-110428571D01*
X110766071Y-110428571D02*
X110766071Y-110642857D01*
X110766071Y-110642857D02*
X110837500Y-110785714D01*
X110837500Y-110785714D02*
X110908928Y-110857143D01*
X110908928Y-110857143D02*
X111051785Y-110928571D01*
X111051785Y-110928571D02*
X111480357Y-110928571D01*
X111480357Y-110928571D02*
X111623214Y-110857143D01*
X111623214Y-110857143D02*
X111694642Y-110785714D01*
X111694642Y-110785714D02*
X111766071Y-110642857D01*
X111766071Y-110642857D02*
X111766071Y-110428571D01*
X110766071Y-111571428D02*
X111766071Y-111571428D01*
X110908928Y-111571428D02*
X110837500Y-111642857D01*
X110837500Y-111642857D02*
X110766071Y-111785714D01*
X110766071Y-111785714D02*
X110766071Y-112000000D01*
X110766071Y-112000000D02*
X110837500Y-112142857D01*
X110837500Y-112142857D02*
X110980357Y-112214286D01*
X110980357Y-112214286D02*
X111766071Y-112214286D01*
X111694642Y-113500000D02*
X111766071Y-113357143D01*
X111766071Y-113357143D02*
X111766071Y-113071429D01*
X111766071Y-113071429D02*
X111694642Y-112928571D01*
X111694642Y-112928571D02*
X111551785Y-112857143D01*
X111551785Y-112857143D02*
X110980357Y-112857143D01*
X110980357Y-112857143D02*
X110837500Y-112928571D01*
X110837500Y-112928571D02*
X110766071Y-113071429D01*
X110766071Y-113071429D02*
X110766071Y-113357143D01*
X110766071Y-113357143D02*
X110837500Y-113500000D01*
X110837500Y-113500000D02*
X110980357Y-113571429D01*
X110980357Y-113571429D02*
X111123214Y-113571429D01*
X111123214Y-113571429D02*
X111266071Y-112857143D01*
X110766071Y-114214285D02*
X111766071Y-114214285D01*
X110908928Y-114214285D02*
X110837500Y-114285714D01*
X110837500Y-114285714D02*
X110766071Y-114428571D01*
X110766071Y-114428571D02*
X110766071Y-114642857D01*
X110766071Y-114642857D02*
X110837500Y-114785714D01*
X110837500Y-114785714D02*
X110980357Y-114857143D01*
X110980357Y-114857143D02*
X111766071Y-114857143D01*
X112838928Y-102714287D02*
X112767500Y-102785715D01*
X112767500Y-102785715D02*
X112696071Y-102928573D01*
X112696071Y-102928573D02*
X112696071Y-103285715D01*
X112696071Y-103285715D02*
X112767500Y-103428573D01*
X112767500Y-103428573D02*
X112838928Y-103500001D01*
X112838928Y-103500001D02*
X112981785Y-103571430D01*
X112981785Y-103571430D02*
X113124642Y-103571430D01*
X113124642Y-103571430D02*
X113338928Y-103500001D01*
X113338928Y-103500001D02*
X114196071Y-102642858D01*
X114196071Y-102642858D02*
X114196071Y-103571430D01*
X112696071Y-104500001D02*
X112696071Y-104642858D01*
X112696071Y-104642858D02*
X112767500Y-104785715D01*
X112767500Y-104785715D02*
X112838928Y-104857144D01*
X112838928Y-104857144D02*
X112981785Y-104928572D01*
X112981785Y-104928572D02*
X113267500Y-105000001D01*
X113267500Y-105000001D02*
X113624642Y-105000001D01*
X113624642Y-105000001D02*
X113910357Y-104928572D01*
X113910357Y-104928572D02*
X114053214Y-104857144D01*
X114053214Y-104857144D02*
X114124642Y-104785715D01*
X114124642Y-104785715D02*
X114196071Y-104642858D01*
X114196071Y-104642858D02*
X114196071Y-104500001D01*
X114196071Y-104500001D02*
X114124642Y-104357144D01*
X114124642Y-104357144D02*
X114053214Y-104285715D01*
X114053214Y-104285715D02*
X113910357Y-104214286D01*
X113910357Y-104214286D02*
X113624642Y-104142858D01*
X113624642Y-104142858D02*
X113267500Y-104142858D01*
X113267500Y-104142858D02*
X112981785Y-104214286D01*
X112981785Y-104214286D02*
X112838928Y-104285715D01*
X112838928Y-104285715D02*
X112767500Y-104357144D01*
X112767500Y-104357144D02*
X112696071Y-104500001D01*
X112838928Y-105571429D02*
X112767500Y-105642857D01*
X112767500Y-105642857D02*
X112696071Y-105785715D01*
X112696071Y-105785715D02*
X112696071Y-106142857D01*
X112696071Y-106142857D02*
X112767500Y-106285715D01*
X112767500Y-106285715D02*
X112838928Y-106357143D01*
X112838928Y-106357143D02*
X112981785Y-106428572D01*
X112981785Y-106428572D02*
X113124642Y-106428572D01*
X113124642Y-106428572D02*
X113338928Y-106357143D01*
X113338928Y-106357143D02*
X114196071Y-105500000D01*
X114196071Y-105500000D02*
X114196071Y-106428572D01*
X112696071Y-106928571D02*
X112696071Y-107857143D01*
X112696071Y-107857143D02*
X113267500Y-107357143D01*
X113267500Y-107357143D02*
X113267500Y-107571428D01*
X113267500Y-107571428D02*
X113338928Y-107714286D01*
X113338928Y-107714286D02*
X113410357Y-107785714D01*
X113410357Y-107785714D02*
X113553214Y-107857143D01*
X113553214Y-107857143D02*
X113910357Y-107857143D01*
X113910357Y-107857143D02*
X114053214Y-107785714D01*
X114053214Y-107785714D02*
X114124642Y-107714286D01*
X114124642Y-107714286D02*
X114196071Y-107571428D01*
X114196071Y-107571428D02*
X114196071Y-107142857D01*
X114196071Y-107142857D02*
X114124642Y-107000000D01*
X114124642Y-107000000D02*
X114053214Y-106928571D01*
X113624642Y-108499999D02*
X113624642Y-109642857D01*
X112696071Y-110642857D02*
X112696071Y-110785714D01*
X112696071Y-110785714D02*
X112767500Y-110928571D01*
X112767500Y-110928571D02*
X112838928Y-111000000D01*
X112838928Y-111000000D02*
X112981785Y-111071428D01*
X112981785Y-111071428D02*
X113267500Y-111142857D01*
X113267500Y-111142857D02*
X113624642Y-111142857D01*
X113624642Y-111142857D02*
X113910357Y-111071428D01*
X113910357Y-111071428D02*
X114053214Y-111000000D01*
X114053214Y-111000000D02*
X114124642Y-110928571D01*
X114124642Y-110928571D02*
X114196071Y-110785714D01*
X114196071Y-110785714D02*
X114196071Y-110642857D01*
X114196071Y-110642857D02*
X114124642Y-110500000D01*
X114124642Y-110500000D02*
X114053214Y-110428571D01*
X114053214Y-110428571D02*
X113910357Y-110357142D01*
X113910357Y-110357142D02*
X113624642Y-110285714D01*
X113624642Y-110285714D02*
X113267500Y-110285714D01*
X113267500Y-110285714D02*
X112981785Y-110357142D01*
X112981785Y-110357142D02*
X112838928Y-110428571D01*
X112838928Y-110428571D02*
X112767500Y-110500000D01*
X112767500Y-110500000D02*
X112696071Y-110642857D01*
X112696071Y-111642856D02*
X112696071Y-112571428D01*
X112696071Y-112571428D02*
X113267500Y-112071428D01*
X113267500Y-112071428D02*
X113267500Y-112285713D01*
X113267500Y-112285713D02*
X113338928Y-112428571D01*
X113338928Y-112428571D02*
X113410357Y-112499999D01*
X113410357Y-112499999D02*
X113553214Y-112571428D01*
X113553214Y-112571428D02*
X113910357Y-112571428D01*
X113910357Y-112571428D02*
X114053214Y-112499999D01*
X114053214Y-112499999D02*
X114124642Y-112428571D01*
X114124642Y-112428571D02*
X114196071Y-112285713D01*
X114196071Y-112285713D02*
X114196071Y-111857142D01*
X114196071Y-111857142D02*
X114124642Y-111714285D01*
X114124642Y-111714285D02*
X114053214Y-111642856D01*
X113624642Y-113214284D02*
X113624642Y-114357142D01*
X114196071Y-115857142D02*
X114196071Y-114999999D01*
X114196071Y-115428570D02*
X112696071Y-115428570D01*
X112696071Y-115428570D02*
X112910357Y-115285713D01*
X112910357Y-115285713D02*
X113053214Y-115142856D01*
X113053214Y-115142856D02*
X113124642Y-114999999D01*
X112696071Y-117214284D02*
X112696071Y-116499998D01*
X112696071Y-116499998D02*
X113410357Y-116428570D01*
X113410357Y-116428570D02*
X113338928Y-116499998D01*
X113338928Y-116499998D02*
X113267500Y-116642856D01*
X113267500Y-116642856D02*
X113267500Y-116999998D01*
X113267500Y-116999998D02*
X113338928Y-117142856D01*
X113338928Y-117142856D02*
X113410357Y-117214284D01*
X113410357Y-117214284D02*
X113553214Y-117285713D01*
X113553214Y-117285713D02*
X113910357Y-117285713D01*
X113910357Y-117285713D02*
X114053214Y-117214284D01*
X114053214Y-117214284D02*
X114124642Y-117142856D01*
X114124642Y-117142856D02*
X114196071Y-116999998D01*
X114196071Y-116999998D02*
X114196071Y-116642856D01*
X114196071Y-116642856D02*
X114124642Y-116499998D01*
X114124642Y-116499998D02*
X114053214Y-116428570D01*
D11*
%TO.C,J11*%
X124238095Y-76343571D02*
X124095238Y-76391190D01*
X124095238Y-76391190D02*
X124047619Y-76438809D01*
X124047619Y-76438809D02*
X124000000Y-76534047D01*
X124000000Y-76534047D02*
X124000000Y-76676904D01*
X124000000Y-76676904D02*
X124047619Y-76772142D01*
X124047619Y-76772142D02*
X124095238Y-76819761D01*
X124095238Y-76819761D02*
X124190476Y-76867380D01*
X124190476Y-76867380D02*
X124571428Y-76867380D01*
X124571428Y-76867380D02*
X124571428Y-75867380D01*
X124571428Y-75867380D02*
X124238095Y-75867380D01*
X124238095Y-75867380D02*
X124142857Y-75915000D01*
X124142857Y-75915000D02*
X124095238Y-75962619D01*
X124095238Y-75962619D02*
X124047619Y-76057857D01*
X124047619Y-76057857D02*
X124047619Y-76153095D01*
X124047619Y-76153095D02*
X124095238Y-76248333D01*
X124095238Y-76248333D02*
X124142857Y-76295952D01*
X124142857Y-76295952D02*
X124238095Y-76343571D01*
X124238095Y-76343571D02*
X124571428Y-76343571D01*
X123619047Y-76581666D02*
X123142857Y-76581666D01*
X123714285Y-76867380D02*
X123380952Y-75867380D01*
X123380952Y-75867380D02*
X123047619Y-76867380D01*
X122857142Y-75867380D02*
X122285714Y-75867380D01*
X122571428Y-76867380D02*
X122571428Y-75867380D01*
X122095237Y-75867380D02*
X121523809Y-75867380D01*
X121809523Y-76867380D02*
X121809523Y-75867380D01*
X121190475Y-76486428D02*
X120428571Y-76486428D01*
%TO.C,J2*%
X99238095Y-76343571D02*
X99095238Y-76391190D01*
X99095238Y-76391190D02*
X99047619Y-76438809D01*
X99047619Y-76438809D02*
X99000000Y-76534047D01*
X99000000Y-76534047D02*
X99000000Y-76676904D01*
X99000000Y-76676904D02*
X99047619Y-76772142D01*
X99047619Y-76772142D02*
X99095238Y-76819761D01*
X99095238Y-76819761D02*
X99190476Y-76867380D01*
X99190476Y-76867380D02*
X99571428Y-76867380D01*
X99571428Y-76867380D02*
X99571428Y-75867380D01*
X99571428Y-75867380D02*
X99238095Y-75867380D01*
X99238095Y-75867380D02*
X99142857Y-75915000D01*
X99142857Y-75915000D02*
X99095238Y-75962619D01*
X99095238Y-75962619D02*
X99047619Y-76057857D01*
X99047619Y-76057857D02*
X99047619Y-76153095D01*
X99047619Y-76153095D02*
X99095238Y-76248333D01*
X99095238Y-76248333D02*
X99142857Y-76295952D01*
X99142857Y-76295952D02*
X99238095Y-76343571D01*
X99238095Y-76343571D02*
X99571428Y-76343571D01*
X98619047Y-76581666D02*
X98142857Y-76581666D01*
X98714285Y-76867380D02*
X98380952Y-75867380D01*
X98380952Y-75867380D02*
X98047619Y-76867380D01*
X97857142Y-75867380D02*
X97285714Y-75867380D01*
X97571428Y-76867380D02*
X97571428Y-75867380D01*
X97095237Y-75867380D02*
X96523809Y-75867380D01*
X96809523Y-76867380D02*
X96809523Y-75867380D01*
X96190475Y-76486428D02*
X95428571Y-76486428D01*
X95809523Y-76867380D02*
X95809523Y-76105476D01*
%TD*%
M02*
