M48
; DRILL file {KiCad (7.0.0)} date Wed Mar 15 20:35:53 2023
; FORMAT={-:-/ absolute / inch / decimal}
; #@! TF.CreationDate,2023-03-15T20:35:53+00:00
; #@! TF.GenerationSoftware,Kicad,Pcbnew,(7.0.0)
; #@! TF.FileFunction,MixedPlating,1,2
FMAT,2
INCH
; #@! TA.AperFunction,Plated,PTH,ComponentDrill
T1C0.0118
; #@! TA.AperFunction,Plated,PTH,ViaDrill
T2C0.0138
; #@! TA.AperFunction,Plated,PTH,ComponentDrill
T3C0.0197
; #@! TA.AperFunction,Plated,PTH,ComponentDrill
T4C0.0236
; #@! TA.AperFunction,Plated,PTH,ComponentDrill
T5C0.0295
; #@! TA.AperFunction,Plated,PTH,ComponentDrill
T6C0.0300
; #@! TA.AperFunction,Plated,PTH,ComponentDrill
T7C0.0335
; #@! TA.AperFunction,Plated,PTH,ComponentDrill
T8C0.0402
; #@! TA.AperFunction,Plated,PTH,ComponentDrill
T9C0.0469
; #@! TA.AperFunction,NonPlated,NPTH,ComponentDrill
T10C0.0591
; #@! TA.AperFunction,NonPlated,NPTH,ComponentDrill
T11C0.0709
; #@! TA.AperFunction,NonPlated,NPTH,ComponentDrill
T12C0.1260
%
G90
G05
T1
X4.2913Y-2.8917
X4.2913Y-2.9429
X4.3307Y-2.8917
X4.3307Y-2.9429
X4.3701Y-2.8917
X4.3701Y-2.9429
T2
X3.5669Y-3.0906
X3.626Y-3.2205
X3.8268Y-3.315
X4.124Y-2.9892
X4.1831Y-3.2579
X4.2815Y-3.2579
X4.3799Y-3.2579
X4.4488Y-3.0807
X4.4488Y-3.1634
X4.4764Y-2.685
X4.4783Y-3.2579
X4.5177Y-2.8976
X4.5472Y-3.0906
X4.626Y-3.0906
X4.6732Y-2.8031
T3
X3.7795Y-2.6181
X3.7795Y-2.6969
X3.7795Y-2.7756
X3.7795Y-2.8543
X3.7795Y-2.9331
X3.8386Y-2.6181
X3.8386Y-2.6969
X3.8386Y-2.7756
X3.8386Y-2.8543
X3.8386Y-2.9331
X3.8976Y-2.6181
X3.8976Y-2.6969
X3.8976Y-2.7756
X3.8976Y-2.8543
X3.8976Y-2.9331
X4.7638Y-2.6181
X4.7638Y-2.6969
X4.7638Y-2.7756
X4.7638Y-2.8543
X4.7638Y-2.9331
X4.8228Y-2.6181
X4.8228Y-2.6969
X4.8228Y-2.7756
X4.8228Y-2.8543
X4.8228Y-2.9331
X4.8819Y-2.6181
X4.8819Y-2.6969
X4.8819Y-2.7756
X4.8819Y-2.8543
X4.8819Y-2.9331
T6
X5.1969Y-3.1496
X5.1969Y-3.2283
X5.1969Y-3.3071
T7
X4.4291Y-2.7249
X4.626Y-2.7249
T8
X3.9807Y-3.3807
X3.9807Y-3.4807
X3.9807Y-3.5807
X3.9807Y-3.6807
X3.9807Y-3.7807
X3.9807Y-3.8807
X3.9807Y-3.9807
X3.9807Y-4.0807
X3.9807Y-4.1807
X3.9807Y-4.2807
X3.9807Y-4.3807
X3.9807Y-4.4807
X3.9807Y-4.5807
X3.9807Y-4.6807
X3.9807Y-4.7807
X3.9807Y-4.8807
X3.9807Y-4.9807
X3.9807Y-5.0807
X3.9807Y-5.1807
X3.9807Y-5.2807
X4.2307Y-3.3898
X4.3307Y-3.3898
X4.4307Y-3.3898
X4.6807Y-3.3807
X4.6807Y-3.4807
X4.6807Y-3.5807
X4.6807Y-3.6807
X4.6807Y-3.7807
X4.6807Y-3.8807
X4.6807Y-3.9807
X4.6807Y-4.0807
X4.6807Y-4.1807
X4.6807Y-4.2807
X4.6807Y-4.3807
X4.6807Y-4.4807
X4.6807Y-4.5807
X4.6807Y-4.6807
X4.6807Y-4.7807
X4.6807Y-4.8807
X4.6807Y-4.9807
X4.6807Y-5.0807
X4.6807Y-5.1807
X4.6807Y-5.2807
T9
X3.5433Y-3.5402
X3.5433Y-3.6402
X3.5433Y-3.7402
X3.5433Y-3.9339
X3.5433Y-4.0339
X3.5433Y-4.1339
X3.5433Y-4.3276
X3.5433Y-4.4276
X3.5433Y-4.5276
X3.5433Y-4.7213
X3.5433Y-4.8213
X3.5433Y-4.9213
X5.1181Y-3.5402
X5.1181Y-3.6402
X5.1181Y-3.7402
X5.1181Y-3.9339
X5.1181Y-4.0339
X5.1181Y-4.1339
X5.1181Y-4.3276
X5.1181Y-4.4276
X5.1181Y-4.5276
X5.1181Y-4.7213
X5.1181Y-4.8213
X5.1181Y-4.9213
T10
X4.2352Y-5.1563
X4.4262Y-5.1563
T11
X4.2234Y-5.2756
X4.438Y-5.2756
T12
X3.5433Y-2.7559
X3.5433Y-5.2165
X5.1181Y-2.7559
X5.1181Y-5.2165
T4
G00X4.3898Y-2.6324
M15
G01X4.3898Y-2.6048
M16
G05
G00X4.6654Y-2.6048
M15
G01X4.6654Y-2.6324
M16
G05
T5
G00X5.1821Y-3.065
M15
G01X5.2116Y-3.065
M16
G05
G00X5.1821Y-3.3917
M15
G01X5.2116Y-3.3917
M16
G05
T0
M30
